# 3ds Max Wavefront OBJ Exporter v0.99 - (c)2007 guruware
# File Created: 28.11.2023 19:59:40

mtllib ??3.mtl

#
# object Box001
#

v  -25.0000 0.0000 15.0000
v  -25.0000 0.0000 -15.0000
v  -8.3333 0.0000 -15.0000
v  -8.3333 0.0000 15.0000
v  8.3333 0.0000 -15.0000
v  8.3333 0.0000 15.0000
v  25.0000 0.0000 -15.0000
v  25.0000 0.0000 15.0000
v  -18.1618 71.1417 11.3013
v  -18.1618 71.1417 -11.2107
v  -25.0000 71.1417 -11.2560
v  -25.0000 71.1417 11.2560
v  15.0973 71.2335 8.9419
v  15.0973 71.2335 -8.8514
v  -15.8025 71.2335 -8.8514
v  -15.8025 71.2335 8.9419
v  25.0000 71.1417 11.2560
v  25.0000 71.1417 -11.2560
v  17.4566 71.1417 -11.2107
v  17.4566 71.1417 11.3013
v  -8.3333 6.0110 15.0000
v  -25.0000 6.0110 15.0000
v  8.3333 6.0110 15.0000
v  25.0000 6.0110 15.0000
v  -8.3333 64.5791 15.0000
v  -25.0000 64.5791 15.0000
v  8.3333 64.5791 15.0000
v  25.0000 64.5791 15.0000
v  -8.3333 64.5791 10.9148
v  -8.3333 67.2895 10.9148
v  -20.9148 67.2895 10.9148
v  -20.9148 64.5791 10.9148
v  8.3333 64.5791 10.9148
v  8.3333 67.2895 10.9148
v  20.9148 64.5791 10.9148
v  20.9148 67.2895 10.9148
v  25.0000 6.0110 -15.0000
v  25.0000 64.5791 -15.0000
v  20.9148 64.5791 -10.9148
v  20.9148 67.2895 -10.9148
v  8.3333 6.0110 -15.0000
v  -8.3333 6.0110 -15.0000
v  -25.0000 6.0110 -15.0000
v  8.3333 64.5791 -15.0000
v  8.3333 6.0110 -10.0665
v  -8.3333 6.0110 -10.0665
v  -8.3333 64.5791 -10.0665
v  8.3333 64.5791 -10.0665
v  -25.0000 64.5791 -15.0000
v  -8.3333 64.5791 -15.0000
v  8.3333 64.5791 -10.9148
v  8.3333 67.2895 -10.9148
v  -8.3333 64.5791 -10.9148
v  -8.3333 67.2895 -10.9148
v  -20.9148 64.5791 -10.9148
v  -20.9148 67.2895 -10.9148
v  -18.1618 71.1417 15.0000
v  -25.0000 71.1417 15.0000
v  -25.0000 67.2895 15.0000
v  -8.3333 67.2895 15.0000
v  17.4566 71.1417 15.0000
v  8.3333 67.2895 15.0000
v  25.0000 71.1417 15.0000
v  25.0000 67.2895 15.0000
v  25.0000 71.1417 -15.0000
v  25.0000 67.2895 -15.0000
v  17.4566 71.1417 -15.0000
v  8.3333 67.2895 -15.0000
v  -18.1618 71.1417 -14.9547
v  -8.3333 67.2895 -15.0000
v  -25.0000 71.1417 -15.0000
v  -25.0000 67.2895 -15.0000
v  -18.1618 68.9384 11.3013
v  -18.1618 68.9384 -11.2107
v  17.4566 68.9384 11.3013
v  17.4566 68.9384 -11.2107
v  -15.8025 68.9384 8.9419
v  -15.8025 68.9384 -8.8514
v  15.0973 68.9384 8.9419
v  15.0973 68.9384 -8.8514
# 80 vertices

vn 0.0000 -1.0000 -0.0000
vn 0.0000 1.0000 -0.0000
vn 0.0000 0.0000 1.0000
vn 1.0000 -0.0000 -0.0000
vn 1.0000 0.0000 -0.0000
vn 0.0000 0.0000 -1.0000
vn -1.0000 0.0000 -0.0000
vn -0.0002 0.0004 -1.0000
vn -0.0011 0.0030 -1.0000
vn 0.0058 0.0262 -0.9996
vn 0.0003 0.0117 -0.9999
vn 0.0010 0.0041 -1.0000
vn -0.0000 0.0000 -1.0000
vn -0.0000 0.0000 1.0000
# 14 vertex normals

vt 1.0000 0.0000 0.0000
vt 1.0000 1.0000 0.0000
vt 0.6667 1.0000 0.0000
vt 0.6667 0.0000 0.0000
vt 0.3333 1.0000 0.0000
vt 0.3333 0.0000 0.0000
vt -0.0000 1.0000 0.0000
vt -0.0000 0.0000 0.0000
vt 0.3333 0.1248 0.0000
vt 0.3333 0.8752 0.0000
vt 0.0000 0.8752 0.0000
vt 0.0000 0.1248 0.0000
vt 0.6667 0.1248 0.0000
vt 0.6667 0.8752 0.0000
vt 1.0000 0.1248 0.0000
vt 1.0000 0.8752 0.0000
vt 0.0000 0.0000 0.0000
vt 0.3333 0.3333 0.0000
vt 0.0000 0.3333 0.0000
vt 0.6667 0.3333 0.0000
vt 1.0000 0.3333 0.0000
vt 0.3333 0.6667 0.0000
vt 0.0000 0.6667 0.0000
vt 0.6667 0.6667 0.0000
vt 1.0000 0.6667 0.0000
vt 0.3333 0.8333 0.0000
vt 0.0000 0.8333 0.0000
vt 0.6667 0.8333 0.0000
vt 1.0000 0.8333 0.0000
vt 0.0000 1.0000 0.0000
vt 0.1248 1.0000 0.0000
vt 0.8752 1.0000 0.0000
# 32 texture coords

o Box001
g Box001
usemtl wire_153228214
s 2
f 1/1/1 2/2/1 3/3/1 
f 3/3/1 4/4/1 1/1/1 
f 4/4/1 3/3/1 5/5/1 
f 5/5/1 6/6/1 4/4/1 
f 6/6/1 5/5/1 7/7/1 
f 7/7/1 8/8/1 6/6/1 
s 4
f 9/9/2 10/10/2 11/11/2 
f 11/11/2 12/12/2 9/9/2 
f 13/13/2 14/14/2 15/10/2 
f 15/10/2 16/9/2 13/13/2 
f 17/15/2 18/16/2 19/14/2 
f 19/14/2 20/13/2 17/15/2 
s 8
f 1/17/3 4/6/3 21/18/3 
f 21/18/3 22/19/3 1/17/3 
f 4/6/3 6/4/3 23/20/3 
f 23/20/3 21/18/3 4/6/3 
f 6/4/3 8/1/3 24/21/3 
f 24/21/3 23/20/3 6/4/3 
f 22/19/3 21/18/3 25/22/3 
f 25/22/3 26/23/3 22/19/3 
f 21/18/3 23/20/3 27/24/3 
f 27/24/3 25/22/3 21/18/3 
f 23/20/3 24/21/3 28/25/3 
f 28/25/3 27/24/3 23/20/3 
f 29/22/3 30/26/3 31/27/3 
f 31/27/3 32/23/3 29/22/3 
f 33/24/3 34/28/3 30/26/3 
f 30/26/3 29/22/3 33/24/3 
f 35/25/3 36/29/3 34/28/3 
f 34/28/3 33/24/3 35/25/3 
s 16
f 8/17/4 7/1/4 37/21/4 
f 37/21/4 24/19/4 8/17/4 
f 24/19/4 37/21/4 38/25/5 
f 38/25/5 28/23/5 24/19/4 
f 39/25/5 40/29/5 36/27/5 
f 36/27/5 35/23/5 39/25/5 
s 32
f 7/17/6 5/6/6 41/18/6 
f 41/18/6 37/19/6 7/17/6 
f 5/6/6 3/4/6 42/20/6 
f 42/20/6 41/18/6 5/6/6 
f 3/4/6 2/1/6 43/21/6 
f 43/21/6 42/20/6 3/4/6 
f 37/19/6 41/18/6 44/22/6 
f 44/22/6 38/23/6 37/19/6 
f 45/18/6 46/20/6 47/24/6 
f 47/24/6 48/22/6 45/18/6 
f 42/20/6 43/21/6 49/25/6 
f 49/25/6 50/24/6 42/20/6 
f 51/22/6 52/26/6 40/27/6 
f 40/27/6 39/23/6 51/22/6 
f 53/24/6 54/28/6 52/26/6 
f 52/26/6 51/22/6 53/24/6 
f 55/25/6 56/29/6 54/28/6 
f 54/28/6 53/24/6 55/25/6 
s 64
f 2/17/7 1/1/7 22/21/7 
f 22/21/7 43/19/7 2/17/7 
f 43/19/7 22/21/7 26/25/7 
f 26/25/7 49/23/7 43/19/7 
f 32/25/7 31/29/7 56/27/7 
f 56/27/7 55/23/7 32/25/7 
s off
f 41/18/2 42/20/2 46/20/2 
f 46/20/2 45/18/2 41/18/2 
f 42/20/5 50/24/5 47/24/5 
f 47/24/5 46/20/5 42/20/5 
f 50/24/1 44/22/1 48/22/1 
f 48/22/1 47/24/1 50/24/1 
f 44/22/7 41/18/7 45/18/7 
f 45/18/7 48/22/7 44/22/7 
s 8
f 57/5/3 58/30/3 59/27/3 
f 59/27/3 60/26/3 57/5/3 
f 61/3/3 57/5/3 60/26/3 
f 60/26/3 62/28/3 61/3/3 
f 63/2/3 61/3/3 62/28/3 
f 62/28/3 64/29/3 63/2/3 
s 16
f 17/31/5 63/30/5 64/27/5 
f 18/32/5 17/31/5 64/27/5 
f 65/2/5 18/32/5 64/27/5 
f 66/29/5 65/2/5 64/27/5 
s 32
f 67/5/8 65/30/6 66/27/6 
f 66/27/6 68/26/9 67/5/8 
f 69/3/10 67/5/8 68/26/9 
f 68/26/9 70/28/11 69/3/10 
f 71/2/12 69/3/10 70/28/11 
f 70/28/11 72/29/6 71/2/12 
s 64
f 11/31/7 71/30/7 72/27/7 
f 12/32/7 11/31/7 72/27/7 
f 58/2/7 12/32/7 72/27/7 
f 59/29/7 58/2/7 72/27/7 
s off
f 26/23/2 25/22/2 29/22/2 
f 29/22/2 32/23/2 26/23/2 
f 25/22/2 27/24/2 33/24/2 
f 33/24/2 29/22/2 25/22/2 
f 27/24/2 28/25/2 35/25/2 
f 35/25/2 33/24/2 27/24/2 
f 28/23/2 38/25/2 39/25/2 
f 39/25/2 35/23/2 28/23/2 
f 38/23/2 44/22/2 51/22/2 
f 51/22/2 39/23/2 38/23/2 
f 44/22/2 50/24/2 53/24/2 
f 53/24/2 51/22/2 44/22/2 
f 50/24/2 49/25/2 55/25/2 
f 55/25/2 53/24/2 50/24/2 
f 49/23/2 26/25/2 32/25/2 
f 32/25/2 55/23/2 49/23/2 
f 60/26/1 59/27/1 31/27/1 
f 31/27/1 30/26/1 60/26/1 
f 59/29/1 72/27/1 56/27/1 
f 56/27/1 31/29/1 59/29/1 
f 72/29/1 70/28/1 54/28/1 
f 54/28/1 56/29/1 72/29/1 
f 70/28/1 68/26/1 52/26/1 
f 52/26/1 54/28/1 70/28/1 
f 68/26/1 66/27/1 40/27/1 
f 40/27/1 52/26/1 68/26/1 
f 66/29/1 64/27/1 36/27/1 
f 36/27/1 40/29/1 66/29/1 
f 64/29/1 62/28/1 34/28/1 
f 34/28/1 36/29/1 64/29/1 
f 62/28/1 60/26/1 30/26/1 
f 30/26/1 34/28/1 62/28/1 
s 4
f 69/5/2 71/30/2 11/11/2 
f 11/11/2 10/10/2 69/5/2 
f 9/9/2 12/12/2 58/17/2 
f 58/17/2 57/6/2 9/9/2 
f 67/3/2 69/5/2 10/10/2 
f 10/10/2 19/14/2 67/3/2 
f 20/13/2 9/9/2 57/6/2 
f 57/6/2 61/4/2 20/13/2 
f 65/2/2 67/3/2 19/14/2 
f 19/14/2 18/16/2 65/2/2 
f 17/15/2 20/13/2 61/4/2 
f 61/4/2 63/1/2 17/15/2 
s off
f 10/10/5 9/9/5 73/9/5 
f 73/9/5 74/10/5 10/10/5 
f 9/9/13 20/13/13 75/13/13 
f 75/13/13 73/9/13 9/9/13 
f 20/13/7 19/14/7 76/14/7 
f 76/14/7 75/13/7 20/13/7 
f 19/14/14 10/10/14 74/10/14 
f 74/10/14 76/14/14 19/14/14 
f 74/10/2 73/9/2 77/9/2 
f 77/9/2 78/10/2 74/10/2 
f 73/9/2 75/13/2 79/13/2 
f 79/13/2 77/9/2 73/9/2 
f 75/13/2 76/14/2 80/14/2 
f 80/14/2 79/13/2 75/13/2 
f 76/14/2 74/10/2 78/10/2 
f 78/10/2 80/14/2 76/14/2 
f 78/10/7 77/9/7 16/9/7 
f 16/9/7 15/10/7 78/10/7 
f 77/9/3 79/13/3 13/13/3 
f 13/13/3 16/9/3 77/9/3 
f 79/13/5 80/14/5 14/14/5 
f 14/14/5 13/13/5 79/13/5 
f 80/14/6 78/10/6 15/10/6 
f 15/10/6 14/14/6 80/14/6 
# 156 faces

