# 3ds Max Wavefront OBJ Exporter v0.99 - (c)2007 guruware
# File Created: 28.11.2023 19:50:26

mtllib ??2.mtl

#
# object Box001
#

v  -10.2899 82.9928 10.7266
v  10.2899 82.9928 10.7266
v  10.2899 82.9928 -10.7266
v  -10.2899 82.9928 -10.7266
v  -0.3875 14.1704 15.4753
v  -0.3875 2.2583 15.4753
v  0.3875 2.2583 15.4753
v  0.3875 14.1704 15.4753
v  -16.3576 16.0000 17.0519
v  16.3576 16.0000 17.0519
v  16.3576 20.0000 17.0519
v  -16.3576 20.0000 17.0519
v  -18.6465 20.0000 19.4379
v  18.6465 20.0000 19.4379
v  18.6465 24.0000 19.4379
v  -18.6465 24.0000 19.4379
v  -16.3576 24.0000 17.0519
v  16.3576 24.0000 17.0519
v  16.3576 28.0000 17.0519
v  -16.3576 28.0000 17.0519
v  -18.6465 28.0000 19.4379
v  18.6465 28.0000 19.4379
v  18.6465 32.0000 19.4379
v  -18.6465 32.0000 19.4379
v  -16.3576 32.0000 17.0519
v  16.3576 32.0000 17.0519
v  16.3576 36.0000 17.0519
v  -16.3576 36.0000 17.0519
v  -18.6465 36.0000 19.4379
v  18.6465 36.0000 19.4379
v  18.6465 40.0000 19.4379
v  -18.6465 40.0000 19.4379
v  -16.3576 40.0000 17.0519
v  16.3576 40.0000 17.0519
v  16.3576 44.0000 17.0519
v  -16.3576 44.0000 17.0519
v  -18.6465 44.0000 19.4379
v  18.6465 44.0000 19.4379
v  18.6465 48.0000 19.4379
v  -18.6465 48.0000 19.4379
v  -16.3576 48.0000 17.0519
v  16.3576 48.0000 17.0519
v  16.3576 52.0000 17.0519
v  -16.3576 52.0000 17.0519
v  -18.6465 52.0000 19.4379
v  18.6465 52.0000 19.4379
v  18.6465 56.0000 19.4379
v  -18.6465 56.0000 19.4379
v  -16.3576 56.0000 17.0519
v  16.3576 56.0000 17.0519
v  16.3576 60.0000 17.0519
v  -16.3576 60.0000 17.0519
v  -18.6465 60.0000 19.4379
v  18.6465 60.0000 19.4379
v  18.6465 64.0000 19.4379
v  -18.6465 64.0000 19.4379
v  -16.3576 64.0000 17.0519
v  16.3576 64.0000 17.0519
v  16.3576 68.0000 17.0519
v  -16.3576 68.0000 17.0519
v  -18.6465 68.0000 19.4379
v  18.6465 68.0000 19.4379
v  18.6465 72.0000 19.4379
v  -18.6465 72.0000 19.4379
v  -16.3576 72.0000 17.0519
v  16.3576 72.0000 17.0519
v  16.3576 76.0000 17.0519
v  -16.3576 76.0000 17.0519
v  -18.6465 76.0000 19.4379
v  18.6465 76.0000 19.4379
v  18.6465 80.0000 19.4379
v  -18.6465 80.0000 19.4379
v  18.6465 2.2583 -19.4379
v  18.6465 14.1704 -19.4379
v  18.6465 14.1704 19.4379
v  18.6465 2.2583 19.4379
v  16.3576 16.0000 -17.0519
v  16.3576 20.0000 -17.0519
v  18.6465 20.0000 -19.4379
v  18.6465 24.0000 -19.4379
v  16.3576 24.0000 -17.0519
v  16.3576 28.0000 -17.0519
v  18.6465 28.0000 -19.4379
v  18.6465 32.0000 -19.4379
v  16.3576 32.0000 -17.0519
v  16.3576 36.0000 -17.0519
v  18.6465 36.0000 -19.4379
v  18.6465 40.0000 -19.4379
v  16.3576 40.0000 -17.0519
v  16.3576 44.0000 -17.0519
v  18.6465 44.0000 -19.4379
v  18.6465 48.0000 -19.4379
v  16.3576 48.0000 -17.0519
v  16.3576 52.0000 -17.0519
v  18.6465 52.0000 -19.4379
v  18.6465 56.0000 -19.4379
v  16.3576 56.0000 -17.0519
v  16.3576 60.0000 -17.0519
v  18.6465 60.0000 -19.4379
v  18.6465 64.0000 -19.4379
v  16.3576 64.0000 -17.0519
v  16.3576 68.0000 -17.0519
v  18.6465 68.0000 -19.4379
v  18.6465 72.0000 -19.4379
v  16.3576 72.0000 -17.0519
v  16.3576 76.0000 -17.0519
v  18.6465 76.0000 -19.4379
v  18.6465 80.0000 -19.4379
v  -18.6465 2.2583 -19.4379
v  -18.6465 14.1704 -19.4379
v  -16.3576 16.0000 -17.0519
v  -16.3576 20.0000 -17.0519
v  -18.6465 20.0000 -19.4379
v  -18.6465 24.0000 -19.4379
v  -16.3576 24.0000 -17.0519
v  -16.3576 28.0000 -17.0519
v  -18.6465 28.0000 -19.4379
v  -18.6465 32.0000 -19.4379
v  -16.3576 32.0000 -17.0519
v  -16.3576 36.0000 -17.0519
v  -18.6465 36.0000 -19.4379
v  -18.6465 40.0000 -19.4379
v  -16.3576 40.0000 -17.0519
v  -16.3576 44.0000 -17.0519
v  -18.6465 44.0000 -19.4379
v  -18.6465 48.0000 -19.4379
v  -16.3576 48.0000 -17.0519
v  -16.3576 52.0000 -17.0519
v  -18.6465 52.0000 -19.4379
v  -18.6465 56.0000 -19.4379
v  -16.3576 56.0000 -17.0519
v  -16.3576 60.0000 -17.0519
v  -18.6465 60.0000 -19.4379
v  -18.6465 64.0000 -19.4379
v  -16.3576 64.0000 -17.0519
v  -16.3576 68.0000 -17.0519
v  -18.6465 68.0000 -19.4379
v  -18.6465 72.0000 -19.4379
v  -16.3576 72.0000 -17.0519
v  -16.3576 76.0000 -17.0519
v  -18.6465 76.0000 -19.4379
v  -18.6465 80.0000 -19.4379
v  -18.6465 2.2583 19.4379
v  -18.6465 14.1704 19.4379
v  -6.2155 0.4287 19.4379
v  -18.6465 0.4287 19.4379
v  -16.3576 0.4287 17.0519
v  6.2155 0.4287 19.4379
v  18.6465 0.4287 19.4379
v  16.3576 0.4287 17.0519
v  -18.6465 0.4287 -19.4379
v  -16.3576 0.4287 -17.0519
v  18.6465 0.4287 -19.4379
v  16.3576 0.4287 -17.0519
v  6.2155 16.0000 19.4379
v  18.6465 16.0000 19.4379
v  -6.2155 16.0000 19.4379
v  -18.6465 16.0000 19.4379
v  18.6465 16.0000 -19.4379
v  -18.6465 16.0000 -19.4379
v  16.6004 80.0000 17.3050
v  -16.6004 80.0000 17.3050
v  16.6004 80.0000 -17.3050
v  -16.6004 80.0000 -17.3050
v  16.6004 77.7879 17.3050
v  -16.6004 77.7879 17.3050
v  16.6004 77.7879 -17.3050
v  -16.6004 77.7879 -17.3050
v  10.2899 77.7879 10.7266
v  -10.2899 77.7879 10.7266
v  10.2899 77.7879 -10.7266
v  -10.2899 77.7879 -10.7266
v  10.2899 81.9519 10.7266
v  -10.2899 81.9519 10.7266
v  10.2899 81.9519 -10.7266
v  -10.2899 81.9519 -10.7266
v  -11.5839 81.9519 12.0755
v  11.5839 81.9519 12.0755
v  11.5839 82.9928 12.0755
v  -11.5839 82.9928 12.0755
v  11.5839 81.9519 -12.0755
v  11.5839 82.9928 -12.0755
v  -11.5839 81.9519 -12.0755
v  -11.5839 82.9928 -12.0755
v  -17.6007 0.4287 18.3477
v  17.6007 0.4287 18.3477
v  -17.6007 0.4287 -18.3477
v  17.6007 0.4287 -18.3477
v  -18.6416 0.4287 19.4328
v  18.6416 0.4287 19.4328
v  -18.6416 0.4287 -19.4328
v  18.6416 0.4287 -19.4328
v  6.2155 14.1704 19.4379
v  6.2155 2.2583 19.4379
v  -6.2155 2.2583 19.4379
v  -6.2155 14.1704 19.4379
v  -6.2155 1.2832 22.1802
v  6.2155 1.2832 22.1802
v  6.2155 2.2583 22.1802
v  -6.2155 2.2583 22.1802
v  6.2155 14.1704 14.7165
v  6.2155 2.2583 14.7165
v  -6.2155 14.1704 14.7165
v  -6.2155 2.2583 14.7165
v  6.2155 14.1704 15.4753
v  6.2155 2.2583 15.4753
v  -6.2155 14.1704 15.4753
v  -5.4579 14.1704 15.4753
v  5.4579 14.1704 15.4753
v  -6.2155 2.2583 15.4753
v  5.4579 2.2583 15.4753
v  -5.4579 2.2583 15.4753
v  -5.4579 14.1704 12.7329
v  -5.4579 2.2583 12.7329
v  -0.3875 2.2583 12.7329
v  -0.3875 14.1704 12.7329
v  5.4579 2.2583 12.7329
v  5.4579 14.1704 12.7329
v  0.3875 14.1704 12.7329
v  0.3875 2.2583 12.7329
v  6.2155 0.4287 22.1802
v  -6.2155 0.4287 22.1802
v  -6.2155 0.4287 25.3841
v  6.2155 0.4287 25.3841
v  6.2155 1.2832 25.3841
v  -6.2155 1.2832 25.3841
# 226 vertices

vn 0.0000 1.0000 -0.0000
vn 0.0000 0.0000 1.0000
vn 1.0000 0.0000 -0.0000
vn 0.0000 0.0000 -1.0000
vn -1.0000 0.0000 -0.0000
vn 0.0000 -1.0000 -0.0000
vn 0.0000 0.0000 -0.0000
vn 1.0000 -0.0000 -0.0000
vn -1.0000 -0.0000 -0.0000
# 9 vertex normals

vt 0.0000 0.0000 0.0000
vt 1.0000 0.0000 0.0000
vt 1.0000 1.0000 0.0000
vt 0.0000 1.0000 0.0000
vt 0.4896 0.1941 0.0000
vt 0.4896 0.1559 0.0000
vt 0.5104 0.1559 0.0000
vt 0.5104 0.1941 0.0000
vt 0.0000 0.2000 0.0000
vt 1.0000 0.2000 0.0000
vt 1.0000 0.2500 0.0000
vt 0.0000 0.2500 0.0000
vt 1.0000 0.3000 0.0000
vt 0.0000 0.3000 0.0000
vt 1.0000 0.3500 0.0000
vt 0.0000 0.3500 0.0000
vt 1.0000 0.4000 0.0000
vt 0.0000 0.4000 0.0000
vt 1.0000 0.4500 0.0000
vt 0.0000 0.4500 0.0000
vt 1.0000 0.5000 0.0000
vt 0.0000 0.5000 0.0000
vt 1.0000 0.5500 0.0000
vt 0.0000 0.5500 0.0000
vt 1.0000 0.6000 0.0000
vt 0.0000 0.6000 0.0000
vt 1.0000 0.6500 0.0000
vt 0.0000 0.6500 0.0000
vt 1.0000 0.7000 0.0000
vt 0.0000 0.7000 0.0000
vt 1.0000 0.7500 0.0000
vt 0.0000 0.7500 0.0000
vt 1.0000 0.8000 0.0000
vt 0.0000 0.8000 0.0000
vt 1.0000 0.8500 0.0000
vt 0.0000 0.8500 0.0000
vt 1.0000 0.9000 0.0000
vt 0.0000 0.9000 0.0000
vt 1.0000 0.9500 0.0000
vt 0.0000 0.9500 0.0000
vt 1.0000 0.1559 0.0000
vt 1.0000 0.1941 0.0000
vt 0.0000 0.1941 0.0000
vt 0.0000 0.1559 0.0000
vt 0.3333 0.1500 0.0000
vt 0.0000 0.1500 0.0000
vt 0.6667 0.1500 0.0000
vt 1.0000 0.1500 0.0000
vt 0.6667 0.2000 0.0000
vt 0.3333 0.2000 0.0000
vt 0.6667 0.1941 0.0000
vt 0.6667 0.1559 0.0000
vt 0.3333 0.1559 0.0000
vt 0.3333 0.1941 0.0000
vt 0.3333 0.1508 0.0000
vt 0.6667 0.1508 0.0000
vt 0.3536 0.1941 0.0000
vt 0.6464 0.1941 0.0000
vt 0.6464 0.1559 0.0000
vt 0.3536 0.1559 0.0000
# 60 texture coords

o Box001
g Box001
usemtl wire_153228214
s 4
f 1/1/1 2/2/1 3/3/1 
f 3/3/1 4/4/1 1/1/1 
s 8
f 5/5/2 6/6/2 7/7/2 
f 7/7/2 8/8/2 5/5/2 
f 9/9/2 10/10/2 11/11/2 
f 11/11/2 12/12/2 9/9/2 
f 13/12/2 14/11/2 15/13/2 
f 15/13/2 16/14/2 13/12/2 
f 17/14/2 18/13/2 19/15/2 
f 19/15/2 20/16/2 17/14/2 
f 21/16/2 22/15/2 23/17/2 
f 23/17/2 24/18/2 21/16/2 
f 25/18/2 26/17/2 27/19/2 
f 27/19/2 28/20/2 25/18/2 
f 29/20/2 30/19/2 31/21/2 
f 31/21/2 32/22/2 29/20/2 
f 33/22/2 34/21/2 35/23/2 
f 35/23/2 36/24/2 33/22/2 
f 37/24/2 38/23/2 39/25/2 
f 39/25/2 40/26/2 37/24/2 
f 41/26/2 42/25/2 43/27/2 
f 43/27/2 44/28/2 41/26/2 
f 45/28/2 46/27/2 47/29/2 
f 47/29/2 48/30/2 45/28/2 
f 49/30/2 50/29/2 51/31/2 
f 51/31/2 52/32/2 49/30/2 
f 53/32/2 54/31/2 55/33/2 
f 55/33/2 56/34/2 53/32/2 
f 57/34/2 58/33/2 59/35/2 
f 59/35/2 60/36/2 57/34/2 
f 61/36/2 62/35/2 63/37/2 
f 63/37/2 64/38/2 61/36/2 
f 65/38/2 66/37/2 67/39/2 
f 67/39/2 68/40/2 65/38/2 
f 69/40/2 70/39/2 71/3/2 
f 71/3/2 72/4/2 69/40/2 
s 16
f 73/41/3 74/42/3 75/43/3 
f 75/43/3 76/44/3 73/41/3 
f 10/9/3 77/10/3 78/11/3 
f 78/11/3 11/12/3 10/9/3 
f 14/12/3 79/11/3 80/13/3 
f 80/13/3 15/14/3 14/12/3 
f 18/14/3 81/13/3 82/15/3 
f 82/15/3 19/16/3 18/14/3 
f 22/16/3 83/15/3 84/17/3 
f 84/17/3 23/18/3 22/16/3 
f 26/18/3 85/17/3 86/19/3 
f 86/19/3 27/20/3 26/18/3 
f 30/20/3 87/19/3 88/21/3 
f 88/21/3 31/22/3 30/20/3 
f 34/22/3 89/21/3 90/23/3 
f 90/23/3 35/24/3 34/22/3 
f 38/24/3 91/23/3 92/25/3 
f 92/25/3 39/26/3 38/24/3 
f 42/26/3 93/25/3 94/27/3 
f 94/27/3 43/28/3 42/26/3 
f 46/28/3 95/27/3 96/29/3 
f 96/29/3 47/30/3 46/28/3 
f 50/30/3 97/29/3 98/31/3 
f 98/31/3 51/32/3 50/30/3 
f 54/32/3 99/31/3 100/33/3 
f 100/33/3 55/34/3 54/32/3 
f 58/34/3 101/33/3 102/35/3 
f 102/35/3 59/36/3 58/34/3 
f 62/36/3 103/35/3 104/37/3 
f 104/37/3 63/38/3 62/36/3 
f 66/38/3 105/37/3 106/39/3 
f 106/39/3 67/40/3 66/38/3 
f 70/40/3 107/39/3 108/3/3 
f 108/3/3 71/4/3 70/40/3 
s 32
f 109/41/4 110/42/4 74/43/4 
f 74/43/4 73/44/4 109/41/4 
f 77/9/4 111/10/4 112/11/4 
f 112/11/4 78/12/4 77/9/4 
f 79/12/4 113/11/4 114/13/4 
f 114/13/4 80/14/4 79/12/4 
f 81/14/4 115/13/4 116/15/4 
f 116/15/4 82/16/4 81/14/4 
f 83/16/4 117/15/4 118/17/4 
f 118/17/4 84/18/4 83/16/4 
f 85/18/4 119/17/4 120/19/4 
f 120/19/4 86/20/4 85/18/4 
f 87/20/4 121/19/4 122/21/4 
f 122/21/4 88/22/4 87/20/4 
f 89/22/4 123/21/4 124/23/4 
f 124/23/4 90/24/4 89/22/4 
f 91/24/4 125/23/4 126/25/4 
f 126/25/4 92/26/4 91/24/4 
f 93/26/4 127/25/4 128/27/4 
f 128/27/4 94/28/4 93/26/4 
f 95/28/4 129/27/4 130/29/4 
f 130/29/4 96/30/4 95/28/4 
f 97/30/4 131/29/4 132/31/4 
f 132/31/4 98/32/4 97/30/4 
f 99/32/4 133/31/4 134/33/4 
f 134/33/4 100/34/4 99/32/4 
f 101/34/4 135/33/4 136/35/4 
f 136/35/4 102/36/4 101/34/4 
f 103/36/4 137/35/4 138/37/4 
f 138/37/4 104/38/4 103/36/4 
f 105/38/4 139/37/4 140/39/4 
f 140/39/4 106/40/4 105/38/4 
f 107/40/4 141/39/4 142/3/4 
f 142/3/4 108/4/4 107/40/4 
s 64
f 143/41/5 144/42/5 110/43/5 
f 110/43/5 109/44/5 143/41/5 
f 111/9/5 9/10/5 12/11/5 
f 12/11/5 112/12/5 111/9/5 
f 113/12/5 13/11/5 16/13/5 
f 16/13/5 114/14/5 113/12/5 
f 115/14/5 17/13/5 20/15/5 
f 20/15/5 116/16/5 115/14/5 
f 117/16/5 21/15/5 24/17/5 
f 24/17/5 118/18/5 117/16/5 
f 119/18/5 25/17/5 28/19/5 
f 28/19/5 120/20/5 119/18/5 
f 121/20/5 29/19/5 32/21/5 
f 32/21/5 122/22/5 121/20/5 
f 123/22/5 33/21/5 36/23/5 
f 36/23/5 124/24/5 123/22/5 
f 125/24/5 37/23/5 40/25/5 
f 40/25/5 126/26/5 125/24/5 
f 127/26/5 41/25/5 44/27/5 
f 44/27/5 128/28/5 127/26/5 
f 129/28/5 45/27/5 48/29/5 
f 48/29/5 130/30/5 129/28/5 
f 131/30/5 49/29/5 52/31/5 
f 52/31/5 132/32/5 131/30/5 
f 133/32/5 53/31/5 56/33/5 
f 56/33/5 134/34/5 133/32/5 
f 135/34/5 57/33/5 60/35/5 
f 60/35/5 136/36/5 135/34/5 
f 137/36/5 61/35/5 64/37/5 
f 64/37/5 138/38/5 137/36/5 
f 139/38/5 65/37/5 68/39/5 
f 68/39/5 140/40/5 139/38/5 
f 141/40/5 69/39/5 72/3/5 
f 72/3/5 142/4/5 141/40/5 
s off
f 145/45/6 146/46/6 147/46/6 
f 148/47/6 145/45/6 147/46/6 
f 149/48/6 148/47/6 147/46/6 
f 149/48/6 147/46/6 150/48/6 
f 146/48/6 151/46/6 152/46/6 
f 152/46/6 147/48/6 146/48/6 
f 151/48/6 153/46/6 154/46/6 
f 154/46/6 152/48/6 151/48/6 
f 153/48/6 149/46/6 150/46/6 
f 150/46/6 154/48/6 153/48/6 
f 155/49/1 156/10/1 10/10/1 
f 157/50/1 155/49/1 10/10/1 
f 158/9/1 157/50/1 10/10/1 
f 158/9/1 10/10/1 9/9/1 
f 156/9/1 159/10/1 77/10/1 
f 77/10/1 10/9/1 156/9/1 
f 159/9/1 160/10/1 111/10/1 
f 111/10/1 77/9/1 159/9/1 
f 160/9/1 158/10/1 9/10/1 
f 9/10/1 111/9/1 160/9/1 
f 14/11/6 13/12/6 12/12/6 
f 12/12/6 11/11/6 14/11/6 
f 13/11/6 113/12/6 112/12/6 
f 112/12/6 12/11/6 13/11/6 
f 113/11/6 79/12/6 78/12/6 
f 78/12/6 112/11/6 113/11/6 
f 79/11/6 14/12/6 11/12/6 
f 11/12/6 78/11/6 79/11/6 
f 16/14/1 15/13/1 18/13/1 
f 18/13/1 17/14/1 16/14/1 
f 15/14/1 80/13/1 81/13/1 
f 81/13/1 18/14/1 15/14/1 
f 80/14/1 114/13/1 115/13/1 
f 115/13/1 81/14/1 80/14/1 
f 114/14/1 16/13/1 17/13/1 
f 17/13/1 115/14/1 114/14/1 
f 22/15/6 21/16/6 20/16/6 
f 20/16/6 19/15/6 22/15/6 
f 21/15/6 117/16/6 116/16/6 
f 116/16/6 20/15/6 21/15/6 
f 117/15/6 83/16/6 82/16/6 
f 82/16/6 116/15/6 117/15/6 
f 83/15/6 22/16/6 19/16/6 
f 19/16/6 82/15/6 83/15/6 
f 24/18/1 23/17/1 26/17/1 
f 26/17/1 25/18/1 24/18/1 
f 23/18/1 84/17/1 85/17/1 
f 85/17/1 26/18/1 23/18/1 
f 84/18/1 118/17/1 119/17/1 
f 119/17/1 85/18/1 84/18/1 
f 118/18/1 24/17/1 25/17/1 
f 25/17/1 119/18/1 118/18/1 
f 30/19/6 29/20/6 28/20/6 
f 28/20/6 27/19/6 30/19/6 
f 29/19/6 121/20/6 120/20/6 
f 120/20/6 28/19/6 29/19/6 
f 121/19/6 87/20/6 86/20/6 
f 86/20/6 120/19/6 121/19/6 
f 87/19/6 30/20/6 27/20/6 
f 27/20/6 86/19/6 87/19/6 
f 32/22/1 31/21/1 34/21/1 
f 34/21/1 33/22/1 32/22/1 
f 31/22/1 88/21/1 89/21/1 
f 89/21/1 34/22/1 31/22/1 
f 88/22/1 122/21/1 123/21/1 
f 123/21/1 89/22/1 88/22/1 
f 122/22/1 32/21/1 33/21/1 
f 33/21/1 123/22/1 122/22/1 
f 38/23/6 37/24/6 36/24/6 
f 36/24/6 35/23/6 38/23/6 
f 37/23/6 125/24/6 124/24/6 
f 124/24/6 36/23/6 37/23/6 
f 125/23/6 91/24/6 90/24/6 
f 90/24/6 124/23/6 125/23/6 
f 91/23/6 38/24/6 35/24/6 
f 35/24/6 90/23/6 91/23/6 
f 40/26/1 39/25/1 42/25/1 
f 42/25/1 41/26/1 40/26/1 
f 39/26/1 92/25/1 93/25/1 
f 93/25/1 42/26/1 39/26/1 
f 92/26/1 126/25/1 127/25/1 
f 127/25/1 93/26/1 92/26/1 
f 126/26/1 40/25/1 41/25/1 
f 41/25/1 127/26/1 126/26/1 
f 46/27/6 45/28/6 44/28/6 
f 44/28/6 43/27/6 46/27/6 
f 45/27/6 129/28/6 128/28/6 
f 128/28/6 44/27/6 45/27/6 
f 129/27/6 95/28/6 94/28/6 
f 94/28/6 128/27/6 129/27/6 
f 95/27/6 46/28/6 43/28/6 
f 43/28/6 94/27/6 95/27/6 
f 48/30/1 47/29/1 50/29/1 
f 50/29/1 49/30/1 48/30/1 
f 47/30/1 96/29/1 97/29/1 
f 97/29/1 50/30/1 47/30/1 
f 96/30/1 130/29/1 131/29/1 
f 131/29/1 97/30/1 96/30/1 
f 130/30/1 48/29/1 49/29/1 
f 49/29/1 131/30/1 130/30/1 
f 54/31/6 53/32/6 52/32/6 
f 52/32/6 51/31/6 54/31/6 
f 53/31/6 133/32/6 132/32/6 
f 132/32/6 52/31/6 53/31/6 
f 133/31/6 99/32/6 98/32/6 
f 98/32/6 132/31/6 133/31/6 
f 99/31/6 54/32/6 51/32/6 
f 51/32/6 98/31/6 99/31/6 
f 56/34/1 55/33/1 58/33/1 
f 58/33/1 57/34/1 56/34/1 
f 55/34/1 100/33/1 101/33/1 
f 101/33/1 58/34/1 55/34/1 
f 100/34/1 134/33/1 135/33/1 
f 135/33/1 101/34/1 100/34/1 
f 134/34/1 56/33/1 57/33/1 
f 57/33/1 135/34/1 134/34/1 
f 62/35/6 61/36/6 60/36/6 
f 60/36/6 59/35/6 62/35/6 
f 61/35/6 137/36/6 136/36/6 
f 136/36/6 60/35/6 61/35/6 
f 137/35/6 103/36/6 102/36/6 
f 102/36/6 136/35/6 137/35/6 
f 103/35/6 62/36/6 59/36/6 
f 59/36/6 102/35/6 103/35/6 
f 64/38/1 63/37/1 66/37/1 
f 66/37/1 65/38/1 64/38/1 
f 63/38/1 104/37/1 105/37/1 
f 105/37/1 66/38/1 63/38/1 
f 104/38/1 138/37/1 139/37/1 
f 139/37/1 105/38/1 104/38/1 
f 138/38/1 64/37/1 65/37/1 
f 65/37/1 139/38/1 138/38/1 
f 70/39/6 69/40/6 68/40/6 
f 68/40/6 67/39/6 70/39/6 
f 69/39/6 141/40/6 140/40/6 
f 140/40/6 68/39/6 69/39/6 
f 141/39/6 107/40/6 106/40/6 
f 106/40/6 140/39/6 141/39/6 
f 107/39/6 70/40/6 67/40/6 
f 67/40/6 106/39/6 107/39/6 
f 72/1/1 71/2/1 161/2/1 
f 161/2/1 162/1/1 72/1/1 
f 71/2/1 108/3/1 163/3/1 
f 163/3/1 161/2/1 71/2/1 
f 108/3/1 142/4/1 164/4/1 
f 164/4/1 163/3/1 108/3/1 
f 142/4/1 72/1/1 162/1/1 
f 162/1/1 164/4/1 142/4/1 
f 162/1/4 161/2/4 165/2/4 
f 165/2/4 166/1/4 162/1/4 
f 161/2/5 163/3/5 167/3/5 
f 167/3/5 165/2/5 161/2/5 
f 163/3/2 164/4/2 168/4/2 
f 168/4/2 167/3/2 163/3/2 
f 164/4/3 162/1/3 166/1/3 
f 166/1/3 168/4/3 164/4/3 
f 166/1/1 165/2/1 169/2/1 
f 169/2/1 170/1/1 166/1/1 
f 165/2/1 167/3/1 171/3/1 
f 171/3/1 169/2/1 165/2/1 
f 167/3/1 168/4/1 172/4/1 
f 172/4/1 171/3/1 167/3/1 
f 168/4/1 166/1/1 170/1/1 
f 170/1/1 172/4/1 168/4/1 
f 170/1/2 169/2/2 173/2/2 
f 173/2/2 174/1/2 170/1/2 
f 169/2/3 171/3/3 175/3/3 
f 175/3/3 173/2/3 169/2/3 
f 171/3/4 172/4/4 176/4/4 
f 176/4/4 175/3/4 171/3/4 
f 172/4/5 170/1/5 174/1/5 
f 174/1/5 176/4/5 172/4/5 
f 177/1/2 178/2/2 179/2/2 
f 179/2/2 180/1/2 177/1/2 
f 178/2/3 181/3/3 182/3/3 
f 182/3/3 179/2/3 178/2/3 
f 181/3/4 183/4/4 184/4/4 
f 184/4/4 182/3/4 181/3/4 
f 183/4/5 177/1/5 180/1/5 
f 180/1/5 184/4/5 183/4/5 
f 174/1/6 173/2/6 178/2/6 
f 178/2/6 177/1/6 174/1/6 
f 173/2/6 175/3/6 181/3/6 
f 181/3/6 178/2/6 173/2/6 
f 175/3/6 176/4/6 183/4/6 
f 183/4/6 181/3/6 175/3/6 
f 176/4/6 174/1/6 177/1/6 
f 177/1/6 183/4/6 176/4/6 
f 2/2/1 1/1/1 180/1/1 
f 180/1/1 179/2/1 2/2/1 
f 1/1/1 4/4/1 184/4/1 
f 184/4/1 180/1/1 1/1/1 
f 4/4/1 3/3/1 182/3/1 
f 182/3/1 184/4/1 4/4/1 
f 3/3/1 2/2/1 179/2/1 
f 179/2/1 182/3/1 3/3/1 
f 150/48/1 147/46/1 185/46/1 
f 185/46/1 186/48/1 150/48/1 
f 147/48/1 152/46/1 187/46/1 
f 187/46/1 185/48/1 147/48/1 
f 152/48/1 154/46/1 188/46/1 
f 188/46/1 187/48/1 152/48/1 
f 154/48/1 150/46/1 186/46/1 
f 186/46/1 188/48/1 154/48/1 
f 186/48/1 185/46/1 189/46/1 
f 189/46/1 190/48/1 186/48/1 
f 185/48/1 187/46/1 191/46/1 
f 191/46/1 189/48/1 185/48/1 
f 187/48/1 188/46/1 192/46/1 
f 192/46/1 191/48/1 187/48/1 
f 188/48/1 186/46/1 190/46/1 
f 190/46/1 192/48/1 188/48/1 
s 1
f 191/46/6 192/46/6 190/46/6 
f 190/46/6 189/46/6 191/46/6 
s 8
f 76/41/2 75/42/2 193/51/2 
f 193/51/2 194/52/2 76/41/2 
f 144/43/2 143/44/2 195/53/2 
f 195/53/2 196/54/2 144/43/2 
f 155/49/2 157/50/2 196/54/2 
f 196/54/2 193/51/2 155/49/2 
f 197/55/2 198/56/2 199/52/2 
f 199/52/2 200/53/2 197/55/2 
s 16
f 159/10/3 156/9/3 75/43/3 
f 75/43/3 74/42/3 159/10/3 
f 153/48/3 73/41/3 76/44/3 
f 76/44/3 149/46/3 153/48/3 
s 32
f 160/10/4 159/9/4 74/43/4 
f 74/43/4 110/42/4 160/10/4 
f 151/48/4 109/41/4 73/44/4 
f 73/44/4 153/46/4 151/48/4 
s 64
f 158/10/5 160/9/5 110/43/5 
f 110/43/5 144/42/5 158/10/5 
f 146/48/5 143/41/5 109/44/5 
f 109/44/5 151/46/5 146/48/5 
s 8
f 156/10/2 155/49/2 193/51/2 
f 193/51/2 75/42/2 156/10/2 
f 76/41/2 194/52/2 148/47/2 
f 148/47/2 149/48/2 76/41/2 
f 146/46/2 145/45/2 195/53/2 
f 195/53/2 143/44/2 146/46/2 
f 144/43/2 196/54/2 157/50/2 
f 157/50/2 158/9/2 144/43/2 
s off
f 194/52/5 193/51/5 201/51/5 
f 201/51/5 202/52/5 194/52/5 
f 193/51/6 196/54/6 203/54/6 
f 203/54/6 201/51/6 193/51/6 
f 196/54/3 195/53/3 204/53/3 
f 204/53/3 203/54/3 196/54/3 
f 195/53/1 194/52/1 202/52/1 
f 202/52/1 204/53/1 195/53/1 
f 202/52/3 201/51/3 205/51/3 
f 205/51/3 206/52/3 202/52/3 
f 203/54/1 207/54/1 208/57/1 
f 203/54/1 208/57/1 209/58/1 
f 201/51/1 203/54/1 209/58/1 
f 201/51/1 209/58/1 205/51/1 
f 203/54/5 204/53/5 210/53/5 
f 210/53/5 207/54/5 203/54/5 
f 202/52/6 206/52/6 211/59/6 
f 202/52/6 211/59/6 212/60/6 
f 204/53/6 202/52/6 212/60/6 
f 204/53/6 212/60/6 210/53/6 
s 8
f 213/57/2 214/60/2 215/6/2 
f 215/6/2 216/5/2 213/57/2 
f 217/59/2 218/58/2 219/8/2 
f 219/8/2 220/7/2 217/59/2 
s off
f 8/8/7 209/58/7 208/57/7 
f 208/57/7 5/5/7 8/8/7 
f 6/6/7 212/60/7 211/59/7 
f 211/59/7 7/7/7 6/6/7 
s 8
f 207/54/2 210/53/2 212/60/2 
f 212/60/2 208/57/2 207/54/2 
f 206/52/2 205/51/2 209/58/2 
f 209/58/2 211/59/2 206/52/2 
s off
f 5/5/6 208/57/6 213/57/6 
f 213/57/6 216/5/6 5/5/6 
f 208/57/3 212/60/3 214/60/3 
f 214/60/3 213/57/3 208/57/3 
f 212/60/1 6/6/1 215/6/1 
f 215/6/1 214/60/1 212/60/1 
f 6/6/5 5/5/5 216/5/5 
f 216/5/5 215/6/5 6/6/5 
f 7/7/1 211/59/1 217/59/1 
f 217/59/1 220/7/1 7/7/1 
f 211/59/5 209/58/5 218/58/5 
f 218/58/5 217/59/5 211/59/5 
f 209/58/6 8/8/6 219/8/6 
f 219/8/6 218/58/6 209/58/6 
f 8/8/3 7/7/3 220/7/3 
f 220/7/3 219/8/3 8/8/3 
f 145/45/6 148/47/6 221/47/6 
f 221/47/6 222/45/6 145/45/6 
f 148/47/3 194/52/3 199/52/3 
f 148/47/3 199/52/3 198/56/3 
f 148/47/8 198/56/8 221/47/8 
f 194/52/1 195/53/1 200/53/1 
f 200/53/1 199/52/1 194/52/1 
f 195/53/5 145/45/5 222/45/5 
f 195/53/9 222/45/9 197/55/9 
f 195/53/5 197/55/5 200/53/5 
s 8
f 223/45/2 224/47/2 225/56/2 
f 225/56/2 226/55/2 223/45/2 
s off
f 222/45/6 221/47/6 224/47/6 
f 224/47/6 223/45/6 222/45/6 
f 221/47/8 198/56/8 225/56/8 
f 225/56/8 224/47/8 221/47/8 
f 198/56/1 197/55/1 226/55/1 
f 226/55/1 225/56/1 198/56/1 
f 197/55/9 222/45/9 223/45/9 
f 223/45/9 226/55/9 197/55/9 
# 448 faces

