# Blender v2.77 (sub 0) OBJ File: 'Houses.blend'
# www.blender.org
mtllib House3.mtl
o Cube.003
v -2.000000 0.000000 1.000000
v -2.000000 2.000000 1.000000
v -2.000000 0.000000 -2.000000
v -2.000000 2.000000 -2.000000
v 1.000000 0.000000 1.000000
v 1.000000 2.000000 1.000000
v 1.000000 0.000000 -2.000000
v 1.000000 2.000000 -2.000000
v -2.000000 3.673757 -0.500000
v 1.000000 3.673757 -0.500000
vt 1.0000 0.1860
vt 1.0000 0.4082
vt 0.6667 0.4082
vt 0.3333 0.2497
vt 0.0000 0.4152
vt 0.0000 0.2497
vt 0.3333 0.6012
vt 0.3333 0.8234
vt 0.0000 0.8234
vt 0.6667 0.2497
vt 0.3333 0.4152
vt 0.3333 0.2497
vt 0.6667 0.7415
vt 0.0000 0.0000
vt 0.3333 0.0000
vt 0.6667 0.1860
vt 0.8333 0.0000
vt 0.3333 0.4152
vt 0.0000 0.6012
vt 0.1667 0.4152
vt 0.6667 0.4152
vt 1.0000 0.7415
vt 0.6667 0.0000
vn -1.0000 0.0000 0.0000
vn 0.0000 0.0000 -1.0000
vn 1.0000 0.0000 0.0000
vn 0.0000 0.0000 1.0000
vn 0.0000 -1.0000 0.0000
vn 0.0000 0.6674 -0.7447
vn 0.0000 0.6674 0.7447
usemtl Material.004
s off
f 4/1/1 3/2/1 1/3/1
f 8/4/2 3/5/2 4/6/2
f 6/7/3 5/8/3 7/9/3
f 2/10/4 5/11/4 6/12/4
f 3/2/5 5/13/5 1/3/5
f 8/4/6 9/14/6 10/15/6
f 10/15/7 2/10/7 6/12/7
f 1/3/1 2/16/1 4/1/1
f 9/17/1 4/1/1 2/16/1
f 8/4/2 7/18/2 3/5/2
f 7/9/3 8/19/3 6/7/3
f 10/20/3 6/7/3 8/19/3
f 2/10/4 1/21/4 5/11/4
f 3/2/5 7/22/5 5/13/5
f 8/4/6 4/6/6 9/14/6
f 10/15/7 9/23/7 2/10/7
