# 3ds Max Wavefront OBJ Exporter v0.99 - (c)2007 guruware
# File Created: 12.12.2021 10:42:48

mtllib TestCube.mtl

#
# object Cube
#

v  -0.4492 -0.4800 0.4492
v  -0.4492 -0.4800 -0.4492
v  0.4492 -0.4800 -0.4492
v  0.4492 -0.4800 0.4492
v  0.4492 0.4800 -0.4492
v  -0.4492 0.4800 -0.4492
v  -0.4492 0.4800 0.4492
v  0.4492 0.4800 0.4492
v  -0.4800 0.4492 0.4492
v  -0.4800 0.4492 -0.4492
v  -0.4800 -0.4492 -0.4492
v  -0.4800 -0.4492 0.4492
v  -0.4492 -0.5600 0.4492
v  0.4492 -0.5600 0.4492
v  0.4492 -0.5600 0.5600
v  -0.4492 -0.5600 0.5600
v  0.4492 -0.5600 -0.4492
v  -0.4492 -0.5600 -0.4492
v  -0.4492 -0.5600 -0.5600
v  0.4492 -0.5600 -0.5600
v  0.4492 0.5600 0.4492
v  -0.4492 0.5600 0.4492
v  -0.4492 0.5600 0.5600
v  0.4492 0.5600 0.5600
v  -0.4492 0.5600 -0.4492
v  0.4492 0.5600 -0.4492
v  0.4492 0.5600 -0.5600
v  -0.4492 0.5600 -0.5600
v  -0.5600 0.4492 0.4492
v  -0.5600 -0.4492 0.4492
v  -0.5600 -0.4492 0.5600
v  -0.5600 0.4492 0.5600
v  -0.5600 -0.4492 -0.4492
v  -0.5600 0.4492 -0.4492
v  -0.5600 0.4492 -0.5600
v  -0.5600 -0.4492 -0.5600
v  0.5600 0.4492 -0.4492
v  0.5600 -0.4492 -0.4492
v  0.5600 -0.4492 -0.5600
v  0.5600 0.4492 -0.5600
v  0.5600 -0.4492 0.4492
v  0.5600 0.4492 0.4492
v  0.5600 0.4492 0.5600
v  0.5600 -0.4492 0.5600
v  -0.4492 0.4492 -0.5600
v  0.4492 0.4492 -0.5600
v  0.4492 -0.4492 -0.5600
v  -0.4492 -0.4492 -0.5600
v  -0.5600 0.5600 0.4492
v  -0.5600 0.5600 -0.4492
v  -0.5600 -0.5600 -0.4492
v  -0.5600 -0.5600 0.4492
v  -0.4492 0.4492 0.5600
v  0.4492 0.4492 0.5600
v  0.4492 -0.4492 0.5600
v  -0.4492 -0.4492 0.5600
v  0.5600 0.5600 0.4492
v  0.5600 0.5600 -0.4492
v  0.5600 -0.5600 -0.4492
v  0.5600 -0.5600 0.4492
v  -0.5600 0.5600 0.5600
v  -0.5600 -0.5600 0.5600
v  -0.5600 -0.5600 -0.5600
v  -0.5600 0.5600 -0.5600
v  0.5600 0.5600 -0.5600
v  0.5600 -0.5600 -0.5600
v  0.5600 -0.5600 0.5600
v  0.5600 0.5600 0.5600
v  0.4492 0.4492 -0.4800
v  -0.4492 0.4492 -0.4800
v  0.4492 -0.4492 -0.4800
v  -0.4492 -0.4492 -0.4800
v  -0.4492 0.4492 0.4800
v  0.4492 0.4492 0.4800
v  -0.4492 -0.4492 0.4800
v  0.4492 -0.4492 0.4800
v  0.4800 0.4492 -0.4492
v  0.4800 -0.4492 -0.4492
v  0.4800 0.4492 0.4492
v  0.4800 -0.4492 0.4492
# 80 vertices

vn 0.0000 -1.0000 -0.0000
vn 0.0000 1.0000 -0.0000
vn -1.0000 0.0000 -0.0000
vn 1.0000 0.0000 -0.0000
vn 0.0000 0.0000 -1.0000
vn 0.0000 0.0000 1.0000
vn 0.7071 0.0000 -0.7071
vn -0.7071 0.0000 -0.7071
vn 0.7071 0.0000 0.7071
vn -0.7071 0.0000 0.7071
vn -0.7071 -0.7071 -0.0000
vn 0.7071 -0.7071 -0.0000
vn -0.7071 0.7071 -0.0000
vn 0.7071 0.7071 -0.0000
vn 0.0000 -0.7071 -0.7071
vn 0.0000 0.7071 -0.7071
vn 0.0000 -0.7071 0.7071
vn 0.0000 0.7071 0.7071
# 18 vertex normals

vt 0.2873 0.0563 0.0000
vt 0.2873 0.2824 0.0000
vt 0.0612 0.2824 0.0000
vt 0.0612 0.0563 0.0000
vt 0.6218 0.6209 0.0000
vt 0.3954 0.6209 0.0000
vt 0.3954 0.3944 0.0000
vt 0.6218 0.3944 0.0000
vt 0.2992 0.3944 0.0000
vt 0.2992 0.6209 0.0000
vt 0.0727 0.6209 0.0000
vt 0.0727 0.3944 0.0000
vt 0.2873 0.0361 0.0000
vt 0.0612 0.0361 0.0000
vt 0.0612 0.0082 0.0000
vt 0.2873 0.0082 0.0000
vt 0.0612 0.3025 0.0000
vt 0.2873 0.3025 0.0000
vt 0.2873 0.3304 0.0000
vt 0.0612 0.3304 0.0000
vt 0.6218 0.3742 0.0000
vt 0.3954 0.3742 0.0000
vt 0.3954 0.3463 0.0000
vt 0.6218 0.3463 0.0000
vt 0.3954 0.6410 0.0000
vt 0.6218 0.6410 0.0000
vt 0.6218 0.6690 0.0000
vt 0.3954 0.6690 0.0000
vt 0.2992 0.3742 0.0000
vt 0.0727 0.3742 0.0000
vt 0.0727 0.3463 0.0000
vt 0.2992 0.3463 0.0000
vt 0.0727 0.6410 0.0000
vt 0.2992 0.6410 0.0000
vt 0.2992 0.6690 0.0000
vt 0.0727 0.6690 0.0000
vt 0.7181 0.6410 0.0000
vt 0.9445 0.6410 0.0000
vt 0.9445 0.6690 0.0000
vt 0.7181 0.6690 0.0000
vt 0.9445 0.3742 0.0000
vt 0.7181 0.3742 0.0000
vt 0.7181 0.3463 0.0000
vt 0.9445 0.3463 0.0000
vt 0.3954 0.6969 0.0000
vt 0.6218 0.6969 0.0000
vt 0.6218 0.9637 0.0000
vt 0.6218 0.9917 0.0000
vt 0.3954 0.9917 0.0000
vt 0.3954 0.9637 0.0000
vt 0.3473 0.3944 0.0000
vt 0.3473 0.6209 0.0000
vt 0.3193 0.6209 0.0000
vt 0.3193 0.3944 0.0000
vt 0.0525 0.3944 0.0000
vt 0.0525 0.6209 0.0000
vt 0.0246 0.6206 0.0000
vt 0.0246 0.3943 0.0000
vt 0.3954 0.3183 0.0000
vt 0.6218 0.3183 0.0000
vt 0.6218 0.0515 0.0000
vt 0.3954 0.0515 0.0000
vt 0.3954 0.0236 0.0000
vt 0.6218 0.0236 0.0000
vt 0.6700 0.3944 0.0000
vt 0.6979 0.3944 0.0000
vt 0.6979 0.6209 0.0000
vt 0.6700 0.6209 0.0000
vt 0.9926 0.6209 0.0000
vt 0.9647 0.6209 0.0000
vt 0.9647 0.3944 0.0000
vt 0.9926 0.3944 0.0000
vt 0.3193 0.3665 0.0000
vt 0.3473 0.3665 0.0000
vt 0.0525 0.3665 0.0000
vt 0.0246 0.3665 0.0000
vt 0.0525 0.6488 0.0000
vt 0.0246 0.6488 0.0000
vt 0.3193 0.6488 0.0000
vt 0.3473 0.6488 0.0000
vt 0.6979 0.6488 0.0000
vt 0.6700 0.6488 0.0000
vt 0.9647 0.6488 0.0000
vt 0.9926 0.6488 0.0000
vt 0.9647 0.3665 0.0000
vt 0.9926 0.3665 0.0000
vt 0.6979 0.3665 0.0000
vt 0.6700 0.3665 0.0000
vt 0.3354 0.2826 0.0000
vt 0.3075 0.2824 0.0000
vt 0.3075 0.0563 0.0000
vt 0.3354 0.0563 0.0000
vt 0.0132 0.2824 0.0000
vt 0.0132 0.0563 0.0000
vt 0.0411 0.0563 0.0000
vt 0.0411 0.2824 0.0000
vt 0.6420 0.6209 0.0000
vt 0.6420 0.3944 0.0000
vt 0.3752 0.3944 0.0000
vt 0.3752 0.6209 0.0000
vt 0.6700 0.7171 0.0000
vt 0.6700 0.9435 0.0000
vt 0.6420 0.9435 0.0000
vt 0.6420 0.7171 0.0000
vt 0.3473 0.7171 0.0000
vt 0.3752 0.7171 0.0000
vt 0.3752 0.9435 0.0000
vt 0.3473 0.9435 0.0000
vt 0.3473 0.2982 0.0000
vt 0.3473 0.0717 0.0000
vt 0.3752 0.0717 0.0000
vt 0.3752 0.2982 0.0000
vt 0.6700 0.0717 0.0000
vt 0.6700 0.2982 0.0000
vt 0.6420 0.2982 0.0000
vt 0.6420 0.0717 0.0000
vt 0.3152 0.0082 0.0000
vt 0.3152 0.0361 0.0000
vt 0.0333 0.0082 0.0000
vt 0.0333 0.0361 0.0000
vt 0.0333 0.3025 0.0000
vt 0.0333 0.3304 0.0000
vt 0.3152 0.3025 0.0000
vt 0.3152 0.3304 0.0000
vt 0.6498 0.3742 0.0000
vt 0.6498 0.3463 0.0000
vt 0.3674 0.3742 0.0000
vt 0.3674 0.3463 0.0000
vt 0.3674 0.6690 0.0000
vt 0.3674 0.6410 0.0000
vt 0.6498 0.6690 0.0000
vt 0.6498 0.6410 0.0000
vt 0.6498 0.6969 0.0000
vt 0.3674 0.6969 0.0000
vt 0.3674 0.9917 0.0000
vt 0.3674 0.9637 0.0000
vt 0.6498 0.9637 0.0000
vt 0.6498 0.9917 0.0000
vt 0.3674 0.3183 0.0000
vt 0.6498 0.3183 0.0000
vt 0.6498 0.0236 0.0000
vt 0.6498 0.0515 0.0000
vt 0.3674 0.0515 0.0000
vt 0.3674 0.0236 0.0000
vt 0.6218 0.7171 0.0000
vt 0.3954 0.7171 0.0000
vt 0.6218 0.9435 0.0000
vt 0.3954 0.9435 0.0000
vt 0.3954 0.2982 0.0000
vt 0.6218 0.2982 0.0000
vt 0.3954 0.0717 0.0000
vt 0.6218 0.0717 0.0000
vt 0.7181 0.6209 0.0000
vt 0.9445 0.6209 0.0000
vt 0.7181 0.3944 0.0000
vt 0.9445 0.3944 0.0000
# 156 texture coords

o Cube
g Cube
usemtl default
s 1
f 1/1/1 2/2/1 3/3/1 
f 3/3/1 4/4/1 1/1/1 
f 5/5/2 6/6/2 7/7/2 
f 7/7/2 8/8/2 5/5/2 
f 9/9/3 10/10/3 11/11/3 
f 11/11/3 12/12/3 9/9/3 
f 13/13/1 14/14/1 15/15/1 
f 15/15/1 16/16/1 13/13/1 
f 17/17/1 18/18/1 19/19/1 
f 19/19/1 20/20/1 17/17/1 
f 21/21/2 22/22/2 23/23/2 
f 23/23/2 24/24/2 21/21/2 
f 25/25/2 26/26/2 27/27/2 
f 27/27/2 28/28/2 25/25/2 
f 29/29/3 30/30/3 31/31/3 
f 31/31/3 32/32/3 29/29/3 
f 33/33/3 34/34/3 35/35/3 
f 35/35/3 36/36/3 33/33/3 
f 37/37/4 38/38/4 39/39/4 
f 39/39/4 40/40/4 37/37/4 
f 41/41/4 42/42/4 43/43/4 
f 43/43/4 44/44/4 41/41/4 
f 45/45/5 28/28/5 27/27/5 
f 27/27/5 46/46/5 45/45/5 
f 47/47/5 20/48/5 19/49/5 
f 19/49/5 48/50/5 47/47/5 
f 49/51/3 50/52/3 34/53/3 
f 34/53/3 29/54/3 49/51/3 
f 30/55/3 33/56/3 51/57/3 
f 51/57/3 52/58/3 30/55/3 
f 53/59/6 54/60/6 24/24/6 
f 24/24/6 23/23/6 53/59/6 
f 55/61/6 56/62/6 16/63/6 
f 16/63/6 15/64/6 55/61/6 
f 57/65/4 42/66/4 37/67/4 
f 37/67/4 58/68/4 57/65/4 
f 59/69/4 38/70/4 41/71/4 
f 41/71/4 60/72/4 59/69/4 
f 29/54/3 32/73/3 61/74/3 
f 61/74/3 49/51/3 29/54/3 
f 31/75/3 30/55/3 52/58/3 
f 52/58/3 62/76/3 31/75/3 
f 33/56/3 36/77/3 63/78/3 
f 63/78/3 51/57/3 33/56/3 
f 35/79/3 34/53/3 50/52/3 
f 50/52/3 64/80/3 35/79/3 
f 37/67/4 40/81/4 65/82/4 
f 65/82/4 58/68/4 37/67/4 
f 39/83/4 38/70/4 59/69/4 
f 59/69/4 66/84/4 39/83/4 
f 41/71/4 44/85/4 67/86/4 
f 67/86/4 60/72/4 41/71/4 
f 43/87/4 42/66/4 57/65/4 
f 57/65/4 68/88/4 43/87/4 
f 51/89/1 18/90/1 13/91/1 
f 13/91/1 52/92/1 51/89/1 
f 59/93/1 60/94/1 14/95/1 
f 14/95/1 17/96/1 59/93/1 
f 57/65/2 58/68/2 26/97/2 
f 26/97/2 21/98/2 57/65/2 
f 50/52/2 49/51/2 22/99/2 
f 22/99/2 25/100/2 50/52/2 
f 40/101/5 39/102/5 47/103/5 
f 47/103/5 46/104/5 40/101/5 
f 35/105/5 45/106/5 48/107/5 
f 48/107/5 36/108/5 35/105/5 
f 32/109/6 31/110/6 56/111/6 
f 56/111/6 53/112/6 32/109/6 
f 44/113/6 43/114/6 54/115/6 
f 54/115/6 55/116/6 44/113/6 
f 16/16/1 62/117/1 52/118/1 
f 52/118/1 13/13/1 16/16/1 
f 67/119/1 15/15/1 14/14/1 
f 14/14/1 60/120/1 67/119/1 
f 59/121/1 17/17/1 20/20/1 
f 20/20/1 66/122/1 59/121/1 
f 18/18/1 51/123/1 63/124/1 
f 63/124/1 19/19/1 18/18/1 
f 57/125/2 21/21/2 24/24/2 
f 24/24/2 68/126/2 57/125/2 
f 22/22/2 49/127/2 61/128/2 
f 61/128/2 23/23/2 22/22/2 
f 28/28/2 64/129/2 50/130/2 
f 50/130/2 25/25/2 28/28/2 
f 65/131/2 27/27/2 26/26/2 
f 26/26/2 58/132/2 65/131/2 
f 65/131/5 40/133/5 46/46/5 
f 46/46/5 27/27/5 65/131/5 
f 45/45/5 35/134/5 64/129/5 
f 64/129/5 28/28/5 45/45/5 
f 19/49/5 63/135/5 36/136/5 
f 36/136/5 48/50/5 19/49/5 
f 39/137/5 66/138/5 20/48/5 
f 20/48/5 47/47/5 39/137/5 
f 53/59/6 23/23/6 61/128/6 
f 61/128/6 32/139/6 53/59/6 
f 43/140/6 68/126/6 24/24/6 
f 24/24/6 54/60/6 43/140/6 
f 67/141/6 44/142/6 55/61/6 
f 55/61/6 15/64/6 67/141/6 
f 16/63/6 56/62/6 31/143/6 
f 31/143/6 62/144/6 16/63/6 
f 13/13/7 1/1/7 4/4/8 
f 4/4/8 14/14/8 13/13/7 
f 18/90/9 2/2/9 1/1/7 
f 1/1/7 13/91/7 18/90/9 
f 17/17/10 3/3/10 2/2/9 
f 2/2/9 18/18/9 17/17/10 
f 14/95/8 4/4/8 3/3/10 
f 3/3/10 17/96/10 14/95/8 
f 21/21/8 8/8/8 7/7/7 
f 7/7/7 22/22/7 21/21/8 
f 26/97/10 5/5/10 8/8/8 
f 8/8/8 21/98/8 26/97/10 
f 25/25/9 6/6/9 5/5/10 
f 5/5/10 26/26/10 25/25/9 
f 22/99/7 7/7/7 6/6/9 
f 6/6/9 25/100/9 22/99/7 
f 46/46/11 69/145/11 70/146/12 
f 70/146/12 45/45/12 46/46/11 
f 47/103/13 71/147/13 69/145/11 
f 69/145/11 46/104/11 47/103/13 
f 48/50/14 72/148/14 71/147/13 
f 71/147/13 47/47/13 48/50/14 
f 45/106/12 70/146/12 72/148/14 
f 72/148/14 48/107/14 45/106/12 
f 29/29/15 9/9/15 12/12/16 
f 12/12/16 30/30/16 29/29/15 
f 34/53/17 10/10/17 9/9/15 
f 9/9/15 29/54/15 34/53/17 
f 33/33/18 11/11/18 10/10/17 
f 10/10/17 34/34/17 33/33/18 
f 30/55/16 12/12/16 11/11/18 
f 11/11/18 33/56/18 30/55/16 
f 53/59/12 73/149/12 74/150/11 
f 74/150/11 54/60/11 53/59/12 
f 56/111/14 75/151/14 73/149/12 
f 73/149/12 53/112/12 56/111/14 
f 55/61/13 76/152/13 75/151/14 
f 75/151/14 56/62/14 55/61/13 
f 54/115/11 74/150/11 76/152/13 
f 76/152/13 55/116/13 54/115/11 
f 37/37/17 77/153/17 78/154/18 
f 78/154/18 38/38/18 37/37/17 
f 42/66/15 79/155/15 77/153/17 
f 77/153/17 37/67/17 42/66/15 
f 41/41/16 80/156/16 79/155/15 
f 79/155/15 42/42/15 41/41/16 
f 38/70/18 78/154/18 80/156/16 
f 80/156/16 41/71/16 38/70/18 
f 76/152/6 74/150/6 73/149/6 
f 73/149/6 75/151/6 76/152/6 
f 78/154/4 77/153/4 79/155/4 
f 79/155/4 80/156/4 78/154/4 
f 72/148/5 70/146/5 69/145/5 
f 69/145/5 71/147/5 72/148/5 
# 156 faces

