# 3ds Max Wavefront OBJ Exporter v0.99 - (c)2007 guruware
# File Created: 28.11.2023 18:44:19

mtllib top1.mtl

#
# object Cylinder001
#

v  0.0000 0.9667 20.0000
v  -14.1421 0.9667 14.1421
v  -20.0000 0.9667 0.0000
v  -14.1421 0.9667 -14.1421
v  -0.0000 0.9667 -20.0000
v  14.1421 0.9667 -14.1421
v  20.0000 0.9667 0.0000
v  14.1421 0.9667 14.1421
v  30.9320 0.9667 0.0005
v  21.8725 0.9667 -21.8720
v  21.8721 10.1160 -21.8725
v  30.9322 10.1160 -0.0000
v  0.0003 0.9667 -30.9321
v  -0.0001 10.1160 -30.9322
v  -21.8725 0.9667 -21.8721
v  -21.8723 10.1160 -21.8725
v  -30.9323 0.9667 0.0003
v  -30.9321 10.1160 -0.0002
v  -21.8722 0.9667 21.8726
v  -21.8725 10.1160 21.8719
v  0.0000 0.9667 30.9322
v  0.0000 10.1160 30.9322
v  21.8723 0.9667 21.8725
v  21.8724 10.1160 21.8722
v  18.1962 10.1160 -18.1960
v  18.1962 19.8666 -18.1960
v  25.7332 19.8666 -0.0000
v  25.7332 10.1160 -0.0000
v  -0.0001 10.1160 -25.7333
v  -0.0001 19.8666 -25.7333
v  -18.1962 10.1160 -18.1961
v  -18.1962 19.8666 -18.1961
v  -25.7333 10.1160 0.0001
v  -25.7333 19.8666 -0.0001
v  -18.1961 10.1160 18.1962
v  -18.1961 19.8666 18.1962
v  0.0000 10.1160 25.7332
v  0.0000 19.8666 25.7332
v  18.1962 10.1160 18.1961
v  18.1962 19.8666 18.1961
v  17.4653 59.4781 0.0000
v  12.3499 59.4781 -12.3499
v  12.4621 89.4781 -14.1421
v  17.6240 89.4781 -0.0000
v  -0.0000 59.4781 -17.4653
v  -0.0000 89.4781 -20.0000
v  -12.3499 59.4781 -12.3499
v  -12.4621 89.4781 -14.1421
v  -17.4653 59.4781 0.0000
v  -17.6240 89.4781 0.0000
v  -12.3499 59.4781 12.3499
v  -12.4621 89.4781 14.1421
v  0.0000 59.4781 17.4653
v  0.0000 89.4781 20.0000
v  12.3499 59.4781 12.3499
v  12.4621 89.4781 14.1421
v  12.4621 119.4781 -14.1421
v  17.6240 119.4781 -0.0000
v  -0.0000 119.4781 -20.0000
v  -12.4621 119.4781 -14.1421
v  -17.6240 119.4781 0.0000
v  -12.4621 119.4781 14.1421
v  0.0000 119.4781 20.0000
v  12.4621 119.4781 14.1421
v  15.4834 123.5134 -17.4842
v  15.4504 131.6861 -16.7114
v  21.5718 131.5680 -0.0000
v  21.6637 123.3869 0.0000
v  -0.0000 123.6442 -24.9500
v  -0.0000 131.8253 -23.9825
v  -15.4834 123.5134 -17.4842
v  -15.4504 131.6861 -16.7114
v  -21.6637 123.3869 0.0000
v  -21.5718 131.5680 0.0000
v  -15.4834 123.5134 17.4842
v  -15.4504 131.6861 16.7114
v  -0.0000 123.6442 24.9500
v  0.0000 131.8253 23.9825
v  15.4834 123.5134 17.4842
v  15.4504 131.6861 16.7114
v  17.8281 144.2573 -0.0000
v  12.6064 144.2573 -14.1421
v  -0.0000 144.2573 -20.0000
v  -12.6064 144.2573 -14.1421
v  -17.8281 144.2573 0.0000
v  -12.6064 144.2573 14.1421
v  0.0000 144.2573 20.0000
v  12.6064 144.2573 14.1421
v  20.0000 19.8666 -0.0000
v  14.1421 19.8666 -14.1421
v  -0.0000 19.8666 -20.0000
v  -14.1421 19.8666 -14.1421
v  -20.0000 19.8666 0.0000
v  -14.1421 19.8666 14.1421
v  0.0000 19.8666 20.0000
v  14.1421 19.8666 14.1421
v  14.1421 10.1160 -14.1421
v  20.0000 10.1160 -0.0000
v  14.1421 10.1160 14.1421
v  0.0000 10.1160 20.0000
v  -14.1421 10.1160 14.1421
v  -20.0000 10.1160 0.0000
v  -14.1421 10.1160 -14.1421
v  -0.0000 10.1160 -20.0000
v  17.7370 131.4909 -0.0000
v  12.5420 131.4909 -14.1421
v  13.8634 123.0466 -16.0092
v  19.5197 123.1786 0.0000
v  19.3148 119.3469 -0.0000
v  13.7516 119.2349 -15.2371
v  -0.0000 131.4909 -20.0000
v  -0.0000 122.9236 -22.6871
v  -0.0000 119.0920 -21.7196
v  -12.5420 131.4909 -14.1421
v  -13.8634 123.0466 -16.0092
v  -13.7516 119.2349 -15.2371
v  -17.7370 131.4909 0.0000
v  -19.5197 123.1786 0.0000
v  -19.3148 119.3469 0.0000
v  -12.5420 131.4909 14.1421
v  -13.8634 123.0466 16.0092
v  -13.7516 119.2349 15.2371
v  0.0000 131.4909 20.0000
v  0.0000 122.9236 22.6871
v  0.0000 119.0920 21.7196
v  12.5420 131.4909 14.1421
v  13.8634 123.0466 16.0092
v  13.7516 119.2349 15.2371
v  12.6069 123.3098 -14.8263
v  17.8289 123.3098 -0.0000
v  12.6069 123.3098 14.8263
v  0.0000 123.3098 20.9675
v  -12.6069 123.3098 14.8263
v  -17.8289 123.3098 0.0000
v  -12.6069 123.3098 -14.8263
v  -0.0000 123.3098 -20.9675
v  -8.6831 138.3360 1.9077
v  -8.6831 138.3360 0.1756
v  -7.1831 138.3360 1.0417
v  -8.6831 178.3360 0.1756
v  -7.1831 178.3360 1.0417
v  -8.6831 178.3360 1.9077
# 142 vertices

vn 0.0000 -1.0000 -0.0000
vn 1.0000 -0.0000 0.0000
vn 0.7071 0.0000 -0.7071
vn 0.7071 -0.0000 -0.7071
vn 1.0000 -0.0000 -0.0000
vn 0.0000 -0.0000 -1.0000
vn -0.0000 -0.0000 -1.0000
vn -0.7071 -0.0000 -0.7071
vn -1.0000 0.0000 0.0000
vn -1.0000 0.0000 -0.0000
vn -0.7071 0.0000 0.7071
vn 0.0000 0.0000 1.0000
vn 0.7071 0.0000 0.7071
vn 1.0000 0.0000 0.0000
vn -0.0000 0.0000 -1.0000
vn -0.7071 0.0000 -0.7071
vn -1.0000 -0.0000 -0.0000
vn 0.9997 0.0255 0.0032
vn 0.7128 0.0058 -0.7013
vn 0.7327 -0.0181 -0.6803
vn 1.0000 -0.0064 0.0028
vn -0.0033 -0.0061 -1.0000
vn -0.0030 -0.0376 -0.9993
vn -0.7127 0.0142 -0.7013
vn -0.7324 -0.0259 -0.6804
vn -0.9997 0.0255 -0.0032
vn -1.0000 -0.0064 -0.0028
vn -0.7128 0.0058 0.7013
vn -0.7327 -0.0181 0.6803
vn 0.0033 -0.0061 1.0000
vn 0.0030 -0.0376 0.9993
vn 0.7127 0.0142 0.7013
vn 0.7324 -0.0259 0.6804
vn 0.7380 -0.0000 -0.6748
vn -0.7380 -0.0000 -0.6748
vn -1.0000 -0.0000 0.0000
vn -0.7380 0.0000 0.6748
vn -0.0000 0.0000 1.0000
vn 0.7380 0.0000 0.6748
vn 0.7315 0.0635 -0.6789
vn 0.7483 0.0683 -0.6598
vn 0.9999 0.0148 0.0042
vn 0.9999 0.0148 0.0041
vn -0.0032 0.1144 -0.9934
vn -0.0035 0.1144 -0.9934
vn -0.7315 0.0702 -0.6782
vn -0.7494 0.0616 -0.6593
vn -0.9999 0.0148 -0.0041
vn -0.9999 0.0148 -0.0042
vn -0.7315 0.0635 0.6789
vn -0.7483 0.0683 0.6598
vn 0.0032 0.1144 0.9934
vn 0.0035 0.1144 0.9934
vn 0.7315 0.0702 0.6782
vn 0.7494 0.0616 0.6593
vn 0.0000 1.0000 -0.0000
vn 0.9980 0.0639 0.0000
vn 0.7057 0.0639 -0.7057
vn -0.0000 0.0639 -0.9980
vn -0.7057 0.0639 -0.7057
vn -0.9980 0.0639 0.0000
vn -0.7057 0.0639 0.7057
vn 0.0000 0.0639 0.9980
vn 0.7057 0.0639 0.7057
vn -0.0000 -1.0000 0.0000
vn 0.0000 -1.0000 0.0000
vn -0.0000 -1.0000 -0.0000
vn -0.0000 1.0000 -0.0000
vn 0.7361 -0.0042 -0.6768
vn 1.0000 -0.0071 0.0000
vn 1.0000 -0.0062 0.0000
vn 0.7356 -0.0032 -0.6774
vn 0.7153 -0.1554 -0.6813
vn 0.9984 -0.0569 0.0044
vn 0.9984 -0.0568 0.0046
vn 0.7524 -0.1544 -0.6403
vn 0.0000 -0.0011 -1.0000
vn -0.0030 -0.2421 -0.9702
vn -0.0036 -0.2423 -0.9702
vn -0.7356 -0.0032 -0.6774
vn -0.7361 -0.0042 -0.6768
vn -0.7149 -0.1616 -0.6803
vn -0.7543 -0.1481 -0.6396
vn -1.0000 -0.0062 0.0000
vn -1.0000 -0.0071 0.0000
vn -0.9984 -0.0569 -0.0044
vn -0.9984 -0.0568 -0.0046
vn -0.7361 -0.0042 0.6768
vn -0.7356 -0.0032 0.6774
vn -0.7153 -0.1554 0.6813
vn -0.7524 -0.1544 0.6403
vn -0.0000 -0.0011 1.0000
vn 0.0030 -0.2421 0.9702
vn 0.0036 -0.2423 0.9702
vn 0.7356 -0.0032 0.6774
vn 0.7361 -0.0042 0.6768
vn 0.7149 -0.1616 0.6803
vn 0.7543 -0.1481 0.6396
vn -0.1423 -0.9885 0.0520
vn -0.0774 -0.9964 0.0356
vn -0.1025 -0.9706 0.2180
vn -0.0599 -0.9871 0.1488
vn 0.0664 -0.9877 0.1412
vn 0.0927 -0.9715 0.2182
vn 0.0774 -0.9966 0.0282
vn 0.1377 -0.9888 0.0575
vn 0.1423 -0.9885 -0.0520
vn 0.0774 -0.9964 -0.0356
vn 0.1025 -0.9706 -0.2180
vn 0.0599 -0.9871 -0.1488
vn -0.0664 -0.9877 -0.1412
vn -0.0927 -0.9715 -0.2182
vn -0.0774 -0.9966 -0.0282
vn -0.1377 -0.9888 -0.0575
vn 0.0774 0.9966 -0.0273
vn 0.1494 0.9869 -0.0609
vn 0.1552 0.9864 0.0547
vn 0.0774 0.9964 0.0355
vn 0.1061 0.9702 0.2179
vn 0.0642 0.9864 0.1514
vn -0.0705 0.9870 0.1448
vn -0.0964 0.9712 0.2181
vn -0.0774 0.9966 0.0273
vn -0.1494 0.9869 0.0609
vn -0.1552 0.9864 -0.0547
vn -0.0774 0.9964 -0.0355
vn -0.1061 0.9702 -0.2179
vn -0.0642 0.9864 -0.1514
vn 0.0705 0.9870 -0.1448
vn 0.0964 0.9712 -0.2181
vn -0.0201 0.9998 0.0074
vn -0.0459 0.9987 0.0239
vn -0.0506 0.9985 -0.0186
vn -0.0201 0.9997 -0.0144
vn -0.0391 0.9957 -0.0836
vn -0.0174 0.9983 -0.0561
vn 0.0232 0.9985 -0.0496
vn 0.0304 0.9960 -0.0836
vn 0.0201 0.9998 -0.0074
vn 0.0459 0.9987 -0.0239
vn 0.0506 0.9985 0.0186
vn 0.0201 0.9997 0.0144
vn 0.0391 0.9957 0.0836
vn 0.0174 0.9983 0.0561
vn -0.0232 0.9985 0.0496
vn -0.0304 0.9960 0.0836
vn 0.0533 -0.9984 -0.0188
vn 0.0201 -0.9997 -0.0143
vn 0.0407 -0.9957 -0.0836
vn 0.0187 -0.9982 -0.0562
vn -0.0244 -0.9984 -0.0501
vn -0.0319 -0.9960 -0.0836
vn -0.0201 -0.9998 -0.0071
vn -0.0482 -0.9985 -0.0243
vn -0.0533 -0.9984 0.0188
vn -0.0201 -0.9997 0.0143
vn -0.0407 -0.9957 0.0836
vn -0.0187 -0.9982 0.0562
vn 0.0244 -0.9984 0.0501
vn 0.0319 -0.9960 0.0836
vn 0.0201 -0.9998 0.0071
vn 0.0482 -0.9985 0.0243
vn -0.5000 0.0000 -0.8660
vn 1.0000 0.0000 -0.0000
vn -0.5000 0.0000 0.8660
# 165 vertex normals

vt 0.2197 0.0000 -0.4142
vt 0.1250 0.0000 -1.0000
vt 0.2500 0.0000 -1.0000
vt 0.5214 0.0000 -0.4142
vt 0.7803 0.0000 0.4142
vt 0.8750 0.0000 1.0000
vt 0.7500 0.0000 1.0000
vt 0.4786 0.0000 0.4142
vt 0.8750 0.2000 1.0000
vt 0.7500 0.2000 1.0000
vt -0.1250 0.0000 1.0000
vt 0.0000 0.0000 1.0000
vt 0.0000 0.2000 1.0000
vt -0.1250 0.2000 1.0000
vt 0.1250 0.0000 1.0000
vt 0.1250 0.2000 1.0000
vt 0.2500 0.0000 1.0000
vt 0.2500 0.2000 1.0000
vt 0.3750 0.0000 1.0000
vt 0.3750 0.2000 1.0000
vt 0.5000 0.0000 1.0000
vt 0.5000 0.2000 1.0000
vt 0.6250 0.0000 1.0000
vt 0.6250 0.2000 1.0000
vt 0.8750 0.3000 1.0000
vt 0.7500 0.3000 1.0000
vt 0.0000 0.3000 1.0000
vt -0.1250 0.3000 1.0000
vt 0.1250 0.3000 1.0000
vt 0.2500 0.3000 1.0000
vt 0.3750 0.3000 1.0000
vt 0.5000 0.3000 1.0000
vt 0.6250 0.3000 1.0000
vt 0.7500 0.4000 1.0000
vt 0.8750 0.4000 1.0000
vt 0.8750 0.6000 1.0000
vt 0.7500 0.6000 1.0000
vt -0.1250 0.4000 1.0000
vt 0.0000 0.4000 1.0000
vt 0.0000 0.6000 1.0000
vt -0.1250 0.6000 1.0000
vt 0.1250 0.4000 1.0000
vt 0.1250 0.6000 1.0000
vt 0.2500 0.4000 1.0000
vt 0.2500 0.6000 1.0000
vt 0.3750 0.4000 1.0000
vt 0.3750 0.6000 1.0000
vt 0.5000 0.4000 1.0000
vt 0.5000 0.6000 1.0000
vt 0.6250 0.4000 1.0000
vt 0.6250 0.6000 1.0000
vt 0.8750 0.8000 1.0000
vt 0.7500 0.8000 1.0000
vt 0.0000 0.8000 1.0000
vt -0.1250 0.8000 1.0000
vt 0.1250 0.8000 1.0000
vt 0.2500 0.8000 1.0000
vt 0.3750 0.8000 1.0000
vt 0.5000 0.8000 1.0000
vt 0.6250 0.8000 1.0000
vt 0.8750 0.8753 1.0000
vt 0.8750 0.9420 1.0000
vt 0.7500 0.9420 1.0000
vt 0.7500 0.8753 1.0000
vt 0.0000 0.8753 1.0000
vt 0.0000 0.9420 1.0000
vt -0.1250 0.9420 1.0000
vt -0.1250 0.8753 1.0000
vt 0.1250 0.8753 1.0000
vt 0.1250 0.9420 1.0000
vt 0.2500 0.8753 1.0000
vt 0.2500 0.9420 1.0000
vt 0.3750 0.8753 1.0000
vt 0.3750 0.9420 1.0000
vt 0.5000 0.8753 1.0000
vt 0.5000 0.9420 1.0000
vt 0.6250 0.8753 1.0000
vt 0.6250 0.9420 1.0000
vt 0.7500 1.0000 1.0000
vt 0.8750 1.0000 1.0000
vt 0.7803 1.0000 0.4142
vt 0.5214 1.0000 -0.4142
vt 0.2500 1.0000 -1.0000
vt 0.1250 1.0000 -1.0000
vt 0.2197 1.0000 -0.4142
vt 0.6250 1.0000 1.0000
vt 0.0000 1.0000 1.0000
vt -0.1250 1.0000 1.0000
vt 0.1250 1.0000 1.0000
vt 0.2500 1.0000 1.0000
vt 0.3750 1.0000 1.0000
vt 0.5000 1.0000 1.0000
vt 0.4167 0.0000 1.0000
vt 0.0833 0.0000 1.0000
vt -0.2500 0.0000 1.0000
vt 0.0833 1.0000 1.0000
vt -0.2500 1.0000 1.0000
vt 0.4167 1.0000 1.0000
vt 0.3333 1.0000 -2.0000
# 99 texture coords

o Cylinder001
g Cylinder001
usemtl wire_177088027
s 1
f 1/1/1 2/2/1 3/3/1 
f 3/3/1 4/4/1 5/5/1 
f 5/5/1 6/6/1 7/7/1 
f 3/3/1 5/5/1 7/7/1 
f 1/1/1 3/3/1 7/7/1 
f 8/8/1 1/1/1 7/7/1 
s 8
f 9/7/2 10/6/3 11/9/4 
f 11/9/4 12/10/5 9/7/2 
f 10/11/3 13/12/6 14/13/7 
f 14/13/7 11/14/4 10/11/3 
f 13/12/6 15/15/8 16/16/8 
f 16/16/8 14/13/7 13/12/6 
f 15/15/8 17/17/9 18/18/10 
f 18/18/10 16/16/8 15/15/8 
f 17/17/9 19/19/11 20/20/11 
f 20/20/11 18/18/10 17/17/9 
f 19/19/11 21/21/12 22/22/12 
f 22/22/12 20/20/11 19/19/11 
f 21/21/12 23/23/13 24/24/13 
f 24/24/13 22/22/12 21/21/12 
f 23/23/13 9/7/2 12/10/5 
f 12/10/5 24/24/13 23/23/13 
f 25/9/4 26/25/3 27/26/14 
f 27/26/14 28/10/2 25/9/4 
f 29/13/15 30/27/15 26/28/3 
f 26/28/3 25/14/4 29/13/15 
f 31/16/16 32/29/8 30/27/15 
f 30/27/15 29/13/15 31/16/16 
f 33/18/9 34/30/17 32/29/8 
f 32/29/8 31/16/16 33/18/9 
f 35/20/11 36/31/11 34/30/17 
f 34/30/17 33/18/9 35/20/11 
f 37/22/12 38/32/12 36/31/11 
f 36/31/11 35/20/11 37/22/12 
f 39/24/13 40/33/13 38/32/12 
f 38/32/12 37/22/12 39/24/13 
f 28/10/2 27/26/14 40/33/13 
f 40/33/13 39/24/13 28/10/2 
f 41/34/18 42/35/19 43/36/20 
f 43/36/20 44/37/21 41/34/18 
f 42/38/19 45/39/22 46/40/23 
f 46/40/23 43/41/20 42/38/19 
f 45/39/22 47/42/24 48/43/25 
f 48/43/25 46/40/23 45/39/22 
f 47/42/24 49/44/26 50/45/27 
f 50/45/27 48/43/25 47/42/24 
f 49/44/26 51/46/28 52/47/29 
f 52/47/29 50/45/27 49/44/26 
f 51/46/28 53/48/30 54/49/31 
f 54/49/31 52/47/29 51/46/28 
f 53/48/30 55/50/32 56/51/33 
f 56/51/33 54/49/31 53/48/30 
f 55/50/32 41/34/18 44/37/21 
f 44/37/21 56/51/33 55/50/32 
f 44/37/21 43/36/20 57/52/34 
f 57/52/34 58/53/14 44/37/21 
f 43/41/20 46/40/23 59/54/7 
f 59/54/7 57/55/34 43/41/20 
f 46/40/23 48/43/25 60/56/35 
f 60/56/35 59/54/7 46/40/23 
f 48/43/25 50/45/27 61/57/36 
f 61/57/36 60/56/35 48/43/25 
f 50/45/27 52/47/29 62/58/37 
f 62/58/37 61/57/36 50/45/27 
f 52/47/29 54/49/31 63/59/38 
f 63/59/38 62/58/37 52/47/29 
f 54/49/31 56/51/33 64/60/39 
f 64/60/39 63/59/38 54/49/31 
f 56/51/33 44/37/21 58/53/14 
f 58/53/14 64/60/39 56/51/33 
f 65/61/40 66/62/41 67/63/42 
f 67/63/42 68/64/43 65/61/40 
f 69/65/44 70/66/45 66/67/41 
f 66/67/41 65/68/40 69/65/44 
f 71/69/46 72/70/47 70/66/45 
f 70/66/45 69/65/44 71/69/46 
f 73/71/48 74/72/49 72/70/47 
f 72/70/47 71/69/46 73/71/48 
f 75/73/50 76/74/51 74/72/49 
f 74/72/49 73/71/48 75/73/50 
f 77/75/52 78/76/53 76/74/51 
f 76/74/51 75/73/50 77/75/52 
f 79/77/54 80/78/55 78/76/53 
f 78/76/53 77/75/52 79/77/54 
f 68/64/43 67/63/42 80/78/55 
f 80/78/55 79/77/54 68/64/43 
s 1
f 81/79/56 82/80/56 83/81/56 
f 83/81/56 84/82/56 85/83/56 
f 85/83/56 86/84/56 87/85/56 
f 83/81/56 85/83/56 87/85/56 
f 81/79/56 83/81/56 87/85/56 
f 88/86/56 81/79/56 87/85/56 
s 8
f 42/35/19 41/34/18 89/26/57 
f 89/26/57 90/25/58 42/35/19 
f 45/39/22 42/38/19 90/28/58 
f 90/28/58 91/27/59 45/39/22 
f 47/42/24 45/39/22 91/27/59 
f 91/27/59 92/29/60 47/42/24 
f 49/44/26 47/42/24 92/29/60 
f 92/29/60 93/30/61 49/44/26 
f 51/46/28 49/44/26 93/30/61 
f 93/30/61 94/31/62 51/46/28 
f 53/48/30 51/46/28 94/31/62 
f 94/31/62 95/32/63 53/48/30 
f 55/50/32 53/48/30 95/32/63 
f 95/32/63 96/33/64 55/50/32 
f 41/34/18 55/50/32 96/33/64 
f 96/33/64 89/26/57 41/34/18 
s off
f 7/7/65 6/6/65 10/6/65 
f 10/6/65 9/7/65 7/7/65 
f 6/11/65 5/12/65 13/12/65 
f 13/12/65 10/11/65 6/11/65 
f 5/12/66 4/15/66 15/15/66 
f 15/15/66 13/12/66 5/12/66 
f 4/15/66 3/17/66 17/17/66 
f 17/17/66 15/15/66 4/15/66 
f 3/17/65 2/19/65 19/19/65 
f 19/19/66 17/17/66 3/17/66 
f 2/19/65 1/21/65 21/21/65 
f 21/21/65 19/19/65 2/19/65 
f 1/21/66 8/23/66 23/23/66 
f 23/23/66 21/21/66 1/21/66 
f 8/23/67 7/7/67 9/7/67 
f 9/7/66 23/23/66 8/23/66 
f 97/9/56 98/10/56 12/10/56 
f 12/10/56 11/9/56 97/9/56 
f 98/10/68 99/24/68 24/24/68 
f 24/24/56 12/10/56 98/10/56 
f 99/24/68 100/22/68 22/22/68 
f 22/22/68 24/24/68 99/24/68 
f 100/22/56 101/20/56 20/20/56 
f 20/20/56 22/22/56 100/22/56 
f 101/20/56 102/18/56 18/18/56 
f 18/18/56 20/20/56 101/20/56 
f 102/18/68 103/16/68 16/16/68 
f 16/16/56 18/18/56 102/18/56 
f 103/16/68 104/13/68 14/13/68 
f 14/13/68 16/16/68 103/16/68 
f 104/13/56 97/14/56 11/14/56 
f 11/14/56 14/13/56 104/13/56 
f 98/10/1 97/9/1 25/9/1 
f 25/9/1 28/10/1 98/10/1 
f 97/14/1 104/13/1 29/13/1 
f 29/13/1 25/14/1 97/14/1 
f 104/13/1 103/16/1 31/16/1 
f 31/16/1 29/13/1 104/13/1 
f 103/16/1 102/18/1 33/18/1 
f 33/18/1 31/16/1 103/16/1 
f 102/18/1 101/20/1 35/20/1 
f 35/20/1 33/18/1 102/18/1 
f 101/20/1 100/22/1 37/22/1 
f 37/22/1 35/20/1 101/20/1 
f 100/22/1 99/24/1 39/24/1 
f 39/24/1 37/22/1 100/22/1 
f 99/24/1 98/10/1 28/10/1 
f 28/10/1 39/24/1 99/24/1 
f 90/25/56 89/26/56 27/26/56 
f 27/26/56 26/25/56 90/25/56 
f 89/26/56 96/33/56 40/33/56 
f 40/33/56 27/26/56 89/26/56 
f 96/33/56 95/32/56 38/32/56 
f 38/32/56 40/33/56 96/33/56 
f 95/32/56 94/31/56 36/31/56 
f 36/31/56 38/32/56 95/32/56 
f 94/31/56 93/30/56 34/30/56 
f 34/30/56 36/31/56 94/31/56 
f 93/30/56 92/29/56 32/29/56 
f 32/29/56 34/30/56 93/30/56 
f 92/29/56 91/27/56 30/27/56 
f 30/27/56 32/29/56 92/29/56 
f 91/27/56 90/28/56 26/28/56 
f 26/28/56 30/27/56 91/27/56 
s 8
f 82/80/69 81/79/70 105/63/71 
f 105/63/71 106/62/72 82/80/69 
f 107/61/73 108/64/74 109/53/75 
f 109/53/75 110/52/76 107/61/73 
f 83/87/77 82/88/69 106/67/72 
f 106/67/72 111/66/15 83/87/77 
f 112/65/78 107/68/73 110/55/76 
f 110/55/76 113/54/79 112/65/78 
f 114/70/80 84/89/81 83/87/77 
f 83/87/77 111/66/15 114/70/80 
f 115/69/82 112/65/78 113/54/79 
f 113/54/79 116/56/83 115/69/82 
f 117/72/84 85/90/85 84/89/81 
f 84/89/81 114/70/80 117/72/84 
f 118/71/86 115/69/82 116/56/83 
f 116/56/83 119/57/87 118/71/86 
f 86/91/88 85/90/85 117/72/84 
f 117/72/84 120/74/89 86/91/88 
f 121/73/90 118/71/86 119/57/87 
f 119/57/87 122/58/91 121/73/90 
f 87/92/92 86/91/88 120/74/89 
f 120/74/89 123/76/38 87/92/92 
f 124/75/93 121/73/90 122/58/91 
f 122/58/91 125/59/94 124/75/93 
f 126/78/95 88/86/96 87/92/92 
f 87/92/92 123/76/38 126/78/95 
f 127/77/97 124/75/93 125/59/94 
f 125/59/94 128/60/98 127/77/97 
f 105/63/71 81/79/70 88/86/96 
f 88/86/96 126/78/95 105/63/71 
f 108/64/74 127/77/97 128/60/98 
f 128/60/98 109/53/75 108/64/74 
s off
f 58/53/99 57/52/99 110/52/99 
f 110/52/100 109/53/100 58/53/100 
f 57/55/101 59/54/101 113/54/101 
f 113/54/102 110/55/102 57/55/102 
f 59/54/103 60/56/103 116/56/103 
f 116/56/104 113/54/104 59/54/104 
f 60/56/105 61/57/105 119/57/105 
f 119/57/106 116/56/106 60/56/106 
f 61/57/107 62/58/107 122/58/107 
f 122/58/108 119/57/108 61/57/108 
f 62/58/109 63/59/109 125/59/109 
f 125/59/110 122/58/110 62/58/110 
f 63/59/111 64/60/111 128/60/111 
f 128/60/112 125/59/112 63/59/112 
f 64/60/113 58/53/113 109/53/113 
f 109/53/114 128/60/114 64/60/114 
f 129/61/115 130/64/115 108/64/115 
f 108/64/116 107/61/116 129/61/116 
f 130/64/117 131/77/117 127/77/117 
f 127/77/118 108/64/118 130/64/118 
f 131/77/119 132/75/119 124/75/119 
f 124/75/120 127/77/120 131/77/120 
f 132/75/121 133/73/121 121/73/121 
f 121/73/122 124/75/122 132/75/122 
f 133/73/123 134/71/123 118/71/123 
f 118/71/124 121/73/124 133/73/124 
f 134/71/125 135/69/125 115/69/125 
f 115/69/126 118/71/126 134/71/126 
f 135/69/127 136/65/127 112/65/127 
f 112/65/128 115/69/128 135/69/128 
f 136/65/129 129/68/129 107/68/129 
f 107/68/130 112/65/130 136/65/130 
f 106/62/131 105/63/131 67/63/131 
f 67/63/132 66/62/132 106/62/132 
f 105/63/133 126/78/133 80/78/133 
f 80/78/134 67/63/134 105/63/134 
f 126/78/135 123/76/135 78/76/135 
f 78/76/136 80/78/136 126/78/136 
f 123/76/137 120/74/137 76/74/137 
f 76/74/138 78/76/138 123/76/138 
f 120/74/139 117/72/139 74/72/139 
f 74/72/140 76/74/140 120/74/140 
f 117/72/141 114/70/141 72/70/141 
f 72/70/142 74/72/142 117/72/142 
f 114/70/143 111/66/143 70/66/143 
f 70/66/144 72/70/144 114/70/144 
f 111/66/145 106/67/145 66/67/145 
f 66/67/146 70/66/146 111/66/146 
f 130/64/147 129/61/147 65/61/147 
f 65/61/148 68/64/148 130/64/148 
f 129/68/149 136/65/149 69/65/149 
f 69/65/150 65/68/150 129/68/150 
f 136/65/151 135/69/151 71/69/151 
f 71/69/152 69/65/152 136/65/152 
f 135/69/153 134/71/153 73/71/153 
f 73/71/154 71/69/154 135/69/154 
f 134/71/155 133/73/155 75/73/155 
f 75/73/156 73/71/156 134/71/156 
f 133/73/157 132/75/157 77/75/157 
f 77/75/158 75/73/158 133/73/158 
f 132/75/159 131/77/159 79/77/159 
f 79/77/160 77/75/160 132/75/160 
f 131/77/161 130/64/161 68/64/161 
f 68/64/162 79/77/162 131/77/162 
s 1
f 137/93/1 138/94/1 139/95/1 
s 8
f 139/95/14 138/94/163 140/96/163 
f 140/96/163 141/97/164 139/95/14 
f 138/94/163 137/93/165 142/98/165 
f 142/98/165 140/96/163 138/94/163 
f 137/93/165 139/7/14 141/79/164 
f 141/79/164 142/98/165 137/93/165 
s 1
f 142/98/56 141/79/56 140/99/56 
# 276 faces

